<?xml version="1.0" encoding="UTF-8"?>
<svg xmlns="http://www.w3.org/2000/svg" xmlns:xlink="http://www.w3.org/1999/xlink" width="2790.58pt" height="2838.04pt" viewBox="0 0 2790.58 2838.04" version="1.1">
<defs>
<clipPath id="clip1">
  <path d="M 0 0 L 2790.578125 0 L 2790.578125 2838.039063 L 0 2838.039063 Z M 0 0 "/>
</clipPath>
</defs>
<g id="surface1">
<g clip-path="url(#clip1)" clip-rule="nonzero">
<path style=" stroke:none;fill-rule:evenodd;fill:rgb(87.799072%,26.298523%,27.49939%);fill-opacity:1;" d="M 194.464844 1357.898438 C 193.535156 1674.070313 273.882813 1926.390625 425.039063 2139.621094 C 676.726563 2494.671875 1092.96875 2683.210938 1525.351563 2637.160156 C 1730.578125 2615.308594 1918.179688 2544.449219 2084.210938 2422.378906 C 2395.941406 2193.199219 2566.078125 1882.808594 2593.960938 1497.828125 C 2614.320313 1216.539063 2545.890625 954.871094 2385.871094 721.859375 C 2162.460938 396.550781 1852.75 214.109375 1457.058594 190.488281 C 1153.910156 172.390625 881.730469 263.238281 647.75 456.308594 C 347.625 703.949219 203.304688 1028.191406 194.464844 1357.898438 Z M 0 1417.289063 C 16.167969 921.160156 216.089844 521.160156 627.019531 235.210938 C 837.335938 88.859375 1073.648438 10.980469 1330.019531 1.199219 C 1767.128906 -15.460938 2133.949219 140.96875 2427.148438 463.800781 C 2641.730469 700.058594 2759.710938 981.140625 2785.359375 1299.359375 C 2813.75 1651.71875 2726.460938 1974.171875 2518.511719 2260.058594 C 2298.859375 2562.039063 2004.300781 2753.519531 1634.910156 2815.917969 C 1181 2892.601563 781.945313 2769.308594 445.816406 2455.628906 C 202.160156 2228.238281 62.480469 1943.980469 14.980469 1614.460938 C 5.59375 1549.351563 2.175781 1483.640625 0 1417.289063 "/>
</g>
<path style=" stroke:none;fill-rule:evenodd;fill:rgb(87.799072%,26.298523%,27.49939%);fill-opacity:1;" d="M 1395.859375 2336.269531 C 1168.109375 2336.269531 940.359375 2336.269531 712.609375 2336.269531 C 693.394531 2336.269531 693.378906 2336.230469 702.832031 2319.808594 C 873.117188 2024.089844 1043.371094 1728.351563 1213.890625 1432.761719 C 1218.890625 1424.101563 1219.980469 1417.980469 1214.621094 1408.660156 C 1043.460938 1111.019531 872.664063 813.160156 701.824219 515.328125 C 693.476563 500.769531 693.496094 500.648438 709.878906 500.648438 C 1167.480469 500.628906 1625.089844 500.628906 2082.691406 500.648438 C 2099.21875 500.648438 2099.25 500.769531 2090.851563 515.261719 C 1918.171875 813.238281 1745.519531 1111.238281 1572.570313 1409.070313 C 1567.609375 1417.609375 1568.03125 1423.488281 1572.839844 1431.761719 C 1745.46875 1727.960938 1917.859375 2024.289063 2090.160156 2320.671875 C 2092.628906 2324.929688 2098.769531 2329.308594 2095.46875 2334.308594 C 2092.488281 2338.820313 2085.71875 2336.171875 2080.691406 2336.179688 C 1852.410156 2336.289063 1624.140625 2336.269531 1395.859375 2336.269531 "/>
</g>
</svg>
