<?xml version="1.0" encoding="utf-8"?>
<!-- Generator: Adobe Illustrator 23.0.5, SVG Export Plug-In . SVG Version: 6.00 Build 0)  -->
<svg version="1.1" id="Layer_1" xmlns="http://www.w3.org/2000/svg" xmlns:xlink="http://www.w3.org/1999/xlink" x="0px" y="0px"
	 viewBox="0 0 300 300" style="enable-background:new 0 0 300 300;" xml:space="preserve">
<style type="text/css">
	.st0{fill:#FFFFFF;}
	.st1{fill:#E897C0;}
	.st2{fill:#C15F9C;}
	.st3{fill:#E07CB0;}
	.st4{fill:#964276;}
	.st5{fill:#2F2D38;}
	.st6{fill:#5E5873;}
	.st7{fill:#5D5674;}
	.st8{fill:#F7C6DF;}
	.st9{fill:#F6C6DE;}
	.st10{fill:#3A6E93;}
	.st11{fill:none;stroke:#1D1F1C;stroke-width:2.9467;stroke-miterlimit:10;}
	.st12{fill:#163866;}
	.st13{fill:#1D1F1C;}
	.st14{fill:none;stroke:#1D1F1C;stroke-width:1.9644;stroke-miterlimit:10;}
	.st15{fill:none;stroke:#944272;stroke-width:2.1473;stroke-miterlimit:10;}
	.st16{fill:none;stroke:#944272;stroke-width:1.0736;stroke-linecap:round;stroke-linejoin:round;stroke-miterlimit:10;}
	.st17{fill:#944272;}
	.st18{fill:#E379AF;}
	.st19{fill:none;stroke:#1D1F1C;stroke-width:3.3156;stroke-miterlimit:10;}
</style>
<g id="Слой_9">
	<g>
		<g>
			<path class="st0" d="M154.4,96c8,0,15.8,1.1,23.5,3.1c18.5,5.1,29.6,14.5,32.3,27.3c0.1,0.3,1.2,6.4-1.8,12.8
				c3.4,1.3,10.9,4.9,13,12.5c1.7,5.9,1.1,8.7,0.6,11.4c-0.3,1.7-0.7,3.2-0.5,5.6c0.2,2.3,0.4,4.3,0.6,5.8c0.9-0.4,1.9-0.7,2.7-0.7
				c1.8,0,3.3,0.8,4.6,2.3l2.7,3.3c3,0.2,13.8,2.2,15.7,20c0,0.6,0.6,11.2-4,16.9c0.5,2.3,0.1,8.4-8.6,22.7
				c0.1,3.2-0.3,20.4-19.4,31.5c-7.7,4.1-16.4,5.2-23.3,5.2c-5.7,0-10.2-0.7-12-1.1c-2.3,2.5-11.8,11.2-28,11.2
				s-26.7-10.5-29.4-13.5c-2.4,0.8-9.3,2.6-17.5,2.6c-10.4,0-23-2.9-31.8-14.9l-0.1-0.1c-10.9-17-0.6-29.2,2.8-32.7l-1.1-1.4
				c-0.2,0-0.4,0-0.6,0c-7.5,0-9.3-4.7-9.7-7.5c-0.4-2.9,0.5-6,2.3-8.6c1.9-2.5,5-7.4,5.9-11.8c0.6-2.8,0-4.5-0.6-6.5
				c-0.8-2.3-1.6-5-0.5-9.6c0.7-2.8,2.1-4.8,4.1-5.8c1.1-0.5,2.2-0.7,3.2-0.7c0.9,0,1.8,0.2,2.3,0.3c2-3.7,2.2-11.6,2.5-18.6
				c0.1-1.2,0.1-2.4,0.2-3.6c0.3-7,5.6-10.9,9.3-12.3c-1.4-3.1-3.7-10.7-0.1-19c4.6-10.8,17.1-18.7,37.2-23.7
				C139,97,146.8,96,154.4,96 M83.4,179.4l-1.1-0.5c0,0-1.1-0.5-2.4-0.5c-0.7,0-1.4,0.1-2,0.4c-1.3,0.6-2.1,2-2.5,3.9
				c-1,3.8-0.3,5.9,0.4,8c0.7,2.1,1.4,4.3,0.7,7.9c-1,5-4.4,10.3-6.4,13c-1.5,2-2.1,4.3-1.8,6.5c0.4,3.3,2.6,5,6.7,5
				c0.4,0,0.8,0,1.2,0l0.8-0.1l3.5,4.8l-1.1,0.9c-0.6,0.5-14.7,11.9-3.3,29.7c8.1,10.9,19.7,13.7,29.4,13.7s17.3-2.7,17.4-2.8l1-0.4
				l0.7,0.8c0.1,0.1,10.8,13.2,27.8,13.2c17.1,0,26.3-10.8,26.4-10.9l0.6-0.7l0.9,0.2c0.1,0,5.2,1.2,12.2,1.2c6.5,0,14.8-1,21.9-4.8
				c19.1-11,17.9-29,17.8-29.2v-0.5l0.3-0.4c9.7-15.5,8.6-20.4,8.4-21l-1-1l1.1-0.8c4.4-4.6,3.8-15.2,3.8-15.3
				c-1.9-16.9-11.8-17.4-13.3-17.4c-0.1,0-0.1,0-0.2,0h-0.7l-3.6-4.4c-0.7-0.9-1.6-1.3-2.4-1.3c-0.5,0-1,0.1-1.6,0.4
				c-0.4,0.2-0.8,0.2-1.2,0.2c-0.5,0-0.9-0.1-1.4-0.4c-0.8-0.4-1.3-1.2-1.5-2.1c-0.3-1.5-0.5-3.5-0.6-6.1c-0.2-2.7,0.2-4.6,0.6-6.3
				c0.5-2.6,1-4.9-0.5-10.1c-2.2-8.2-12.5-11-12.6-11l-1.8-0.5l0.9-1.7c3.4-6,2.2-12.3,2.2-12.3c-2.4-11.8-12.6-20.2-30.2-25.1
				c-7.3-2-15-3-22.7-3c-7.4,0-14.9,0.9-22.3,2.7c-19.2,4.7-31.1,12.1-35.3,21.9c-4,9.4,0.7,17.9,0.7,18l1,1.7l-1.9,0.5
				c-0.3,0.1-8.4,2.2-8.8,10.3c-0.1,1.2-0.1,2.3-0.2,3.6c-0.4,8.8-0.7,17-3.6,21L83.4,179.4 M154.4,86.4c-8.4,0-16.9,1.1-25.2,3.1
				c-23.3,5.7-38,15.4-43.9,29.1c-2.9,6.9-3,13.5-2.2,18.5c-4.1,3.7-7.4,9.1-7.7,16.1c-0.1,1.2-0.1,2.3-0.2,3.6v0.1
				c-0.1,2.4-0.3,6.5-0.6,9.9c-0.8,0.2-1.5,0.5-2.2,0.9c-3.2,1.6-7.4,5-9.2,12c-1.8,7.2-0.3,12,0.6,14.9c0.2,0.5,0.4,1.2,0.4,1.4
				l0,0c0,0,0,0.1-0.1,0.4c-0.4,1.9-2.1,5-4.2,8.1c-3.3,4.6-4.7,10.1-4.1,15.4c0.6,5,2.9,9,6.4,11.8c-4.2,9.3-4.6,21.1,3.4,33.7
				c0.1,0.1,0.1,0.2,0.2,0.3l0.1,0.1c0.1,0.1,0.1,0.2,0.2,0.3c9.1,12.2,22.8,18.8,39.5,18.8c5.7,0,10.9-0.8,14.7-1.6
				c6.1,5.3,17.2,12.4,32.2,12.4s25.4-6.3,31-10.7c2.4,0.3,5.5,0.5,8.9,0.5c10.6,0,19.9-2.2,27.8-6.4c0.1-0.1,0.2-0.1,0.3-0.2
				c20.1-11.6,23.6-29.3,24-37c5.6-9.5,8.5-16.9,8.8-22.8c4.3-8,4-18,3.9-20.1c0-0.2,0-0.3,0-0.5c-1.1-10.2-4.8-18-10.9-23.1
				c-3.2-2.6-6.5-4.1-9.3-4.8l-0.5-0.6c-1.6-1.9-3.4-3.3-5.5-4.3c0-0.2,0.1-0.4,0.1-0.6c0.8-4.1,1.4-8.4-0.7-15.9
				c-2-7-6.5-11.7-10.9-14.8c0.7-5,0.1-8.8-0.1-9.8v-0.1c-2.3-11.5-11-27-39.1-34.7C172,87.6,163.3,86.4,154.4,86.4L154.4,86.4z
				 M105.9,136.9c-0.3-0.6-2.2-5-0.3-9.6c2.9-6.7,13.1-12.5,28.7-16.4c6.6-1.7,13.3-2.4,19.9-2.4c6.9,0,13.7,0.9,20.1,2.6
				c13.7,3.7,21.5,9.7,23.3,17.5c0.1,0.6,0.3,3.4-1.2,6l-0.9,1.7c-1.5,2.5-1.7,5.7-0.5,8.4c1.2,2.7,3.5,4.8,6.4,5.6l1.7,0.5
				c2.2,0.7,5.5,2.5,6.1,4.4c0.9,3,0.7,3.7,0.3,5.7c-0.4,2-1,4.8-0.7,8.8c0.2,2.8,0.4,5.1,0.7,6.9c0.6,3.8,2.9,7,6.4,8.9
				c1.9,1,3.8,1.5,6,1.5h0.1l1.3,1.6c1.9,2.2,4.5,3.4,7.3,3.4c0.2,0,0.4,0,0.5,0h0.3c1.2,0.3,3.1,2.7,3.8,8.6
				c0.1,2.8-0.4,6.4-1.1,7.7c-2.2,1.7-3.6,4.2-3.9,6.9c-0.1,1.5,0.1,2.9,0.7,4.3c-0.6,2.1-2.3,6.3-6.7,13.4l-0.3,0.4
				c-1.1,1.8-1.6,3.8-1.4,5.8v0.3c0,1.1,0,12.7-12.9,20.2c-5.7,2.9-12.5,3.6-17.2,3.6c-5.6,0-9.8-0.9-10.2-0.9l-0.8-0.2
				c-0.7-0.2-1.4-0.2-2.2-0.2c-2.8,0-5.6,1.3-7.3,3.4l-0.5,0.6c-0.6,0.7-7.1,7.5-19.1,7.5c-11.8,0-19.9-9.2-20.3-9.7l-0.6-0.8
				c-1.9-2.3-4.6-3.6-7.5-3.6c-1.1,0-2.2,0.2-3.3,0.6l-0.9,0.3c-0.4,0.1-6.5,2.2-14.2,2.2c-9.5,0-16.7-3.2-21.5-9.5
				c-2.7-4.4-3.4-8.3-2.1-11.8c1.1-2.9,3.2-4.7,3.4-4.9l1.1-0.8c4.1-3.2,4.9-9.1,1.8-13.2l-3.5-4.8c-1.2-1.7-2.8-2.8-4.7-3.4
				c2.4-3.8,4.9-8.6,5.8-13.5c1-5.3,0.1-9.1-0.7-11.6c2.3-0.5,4.4-1.8,6-3.7l0.7-0.9c4.7-6.4,5.1-15.6,5.5-26.3
				c0-1.2,0.1-2.3,0.2-3.5c0-0.9,1.4-1.4,1.7-1.5l1.7-0.4c2.9-0.8,5.3-2.8,6.5-5.6c1.2-2.7,1-5.9-0.5-8.5L105.9,136.9L105.9,136.9z"
				/>
		</g>
	</g>
	<g>
		<g>
			<path class="st0" d="M188.7,13.8v66.1h-22.8L152,96.8l-14.7-16.7h-22.8V13.8H188.7 M117.8,76.8h21l13.1,15l12.4-15.2h21V17.1
				h-67.5L117.8,76.8 M188.7,4.2h-74.1c-5.3,0-9.6,4.3-9.6,9.6v66.3c0,5.3,4.3,9.6,9.6,9.6h18.5l11.8,13.4c1.9,2.1,4.5,3.2,7.2,3.2
				c0.1,0,0.1,0,0.2,0c2.8,0,5.5-1.4,7.2-3.5l10.9-13.4h18.2c5.3,0,9.6-4.3,9.6-9.6v-66C198.3,8.5,194,4.2,188.7,4.2L188.7,4.2z
				 M127.5,26.7h48.4v40.4h-11.4c-2.8,0-5.6,1.3-7.4,3.5l-5.3,6.4l-5.7-6.5c-1.9-2.1-4.5-3.2-7.2-3.2h-11.4L127.5,26.7L127.5,26.7z"
				/>
		</g>
	</g>
</g>
<g id="Слой_7">
	<path class="st1" d="M78.6,227.8c0,0-15.8,12.4-3.6,31.7c17.1,23,48.6,11.4,48.6,11.4s10.9,13.7,28.9,13.7s27.5-11.4,27.5-11.4
		s19.6,4.4,35.1-3.8c20-11.6,18.6-30.6,18.6-30.6c11.4-18.4,8.4-22.6,8.4-22.6c4.9-5.1,4.2-16.4,4.2-16.4c-2.2-19.6-15-18.8-15-18.8
		s0,0-3.1-3.8c-2-2.3-4.2-2-5.7-1.3c-0.9,0.4-1.8-0.1-2-1.1c-0.2-1.2-0.4-3-0.6-5.9c-0.4-6.5,2.5-7.6,0-16.7
		c-2.5-9.1-13.7-12.1-13.7-12.1c3.7-6.5,2.4-13.3,2.4-13.3c-3-15-17.5-22.5-31.2-26.2c-15-4.1-30.6-4-45.7-0.3
		c-52.2,12.9-35.5,42-35.5,42s-9.4,2.4-9.9,11.6c-0.4,9.2-0.4,19.6-3.5,23.9c0,0-7-3-9,4.8s2.4,9.2,1.1,15.9
		c-0.9,4.7-4.2,9.7-6.2,12.4c-1.6,2.2-2.4,4.9-2.1,7.5c0.4,3.3,2.4,6.7,9.5,6.3L78.6,227.8z"/>
	<path class="st2" d="M163.3,162.4c-1.6-5.4-6.9-9.4-12.5-9.5c-5.6-0.1-11,3.7-12.8,9.1c-1.4,4.1,1.1,8.5,1.6,12.8
		c0.1,1.2,0.3,2.3,1.2,3.1c1,0.9,2.4,0.9,3.7,0.8c6.1-0.3,12.1-0.6,18.2-0.9C162.8,172.9,164.7,167.2,163.3,162.4z"/>
	<path class="st3" d="M76.2,224.6l2.2,2.9c7.2,6.5,16.7,9.2,26.4,7.7c8-1.2,16.6-6.5,22.5-12.6c-0.1-0.3-0.2-0.6-0.1-0.9
		c1.7-4.9,5.4-11.7,11.6-8.3c1.8,1,2.9,2.8,4.8,3.8c2.2,1.2,4.8,1.5,7.2,1.4c4.9-0.1,8.6-2.4,12.8-4.8c6.6-3.7,12.4,6.3,16.6,10.1
		c8.3,7.3,17.7,13.4,29,14.1c4.5-1.4,8.9-3.1,13-5.5c4.1-2.2,7.6-5.4,11.6-7.6c2.4-1.4,5-2.3,7.6-3.1c1.2-4.4,0.3-5.8,0.3-5.8
		c4.9-5.1,4.2-16.4,4.2-16.4c-2.2-19.6-15-18.8-15-18.8s0,0-3.1-3.8c-2-2.3-4.2-2-5.7-1.3c-0.9,0.4-1.8-0.1-2-1.1
		c-0.2-1.2-0.4-3-0.6-5.9c-0.4-6.5,2.5-7.6,0-16.7c-2.2-7.6-10.3-10.9-12.9-11.8l0.9,0.3c0,0-17.1-7.3-26.5-1.2
		c-9.4,6.3-16,15.6-17.6,26.9c-1.6,11.2-0.8,19.3-0.8,19.3l-24-1.1c0,0,0.8-13.9-1.3-25.9c-2.1-12-11.9-18.3-19.7-20.9
		c-7.9-2.6-21.5,4.6-21.5,4.6l-0.3-0.1c0,0-9.4,2.4-9.9,11.6c-0.4,9.2-0.4,19.6-3.5,23.9c0,0-7-3-9,4.8c-2,7.9,2.4,9.2,1.1,15.9
		c-0.9,4.7-4.2,9.7-6.2,12.4c-1.6,2.2-2.4,4.9-2.1,7.5C67.1,221.7,69.1,225.1,76.2,224.6z"/>
	<path class="st4" d="M156.6,184.5c7.9,0.8,17.1,6.4,20.7,10.6c3.6,4.3,3.2,12.9-2.3,24.2c-5.6,11.3-6.7,14.1-9.8,12.9
		c-3-1.2-0.9-7.4-0.4-14.3c0.4-6.7,3.2-23.2-12.9-23.7c-16-0.6-14.3,20.4-14.7,26.4c-0.4,6-0.3,12.9-4.3,12.7c-4-0.1-5.1-7-6.1-11
		c-1-4-5.1-14-2-25.6c3.2-11.6,18.6-12.2,18.6-12.2c-1.4,0.3-3.1,0.4-4.5,0.7c-0.5-2.2-1-4.6-0.9-6.8c0.1-2.2,0.9-4.7,2.6-6.3
		c1.9-1.7,4.4-2.2,6.8-2.3c3.4-0.3,6.9-0.3,10.4,0.2c1.9,0.3,4,0.8,4.9,2.4c0.5,0.9,0.6,2,0.6,3c0.1,2.2,0.2,4.6,0.3,6.8
		c0,0.7,0,1.4-0.3,2c-0.7,1.1-2.2,1.1-3.4,0.8C158.8,184.7,157.7,184,156.6,184.5z"/>
	<path class="st5" d="M246.4,203.1c0,0-0.8-9.3-2.5-14.2s-13.2-8.8-13.2-8.8c-1.2,12.9,1.3,26.5,4.8,38.9c2.3-0.5,4.8-1.7,6.5-3.3
		c1-1,1.6-2.2,2.2-3.3C245.7,209.5,246.7,206.4,246.4,203.1z"/>
	<path class="st6" d="M242.4,215.7c-3,0.1-5.7,2.1-7.3,4.6c-1.7,2.5-2.5,5.4-3.6,8.2c-2,5.3-4.6,10.3-7.7,15
		c-2.5,3.8-5.7,7.5-9.9,9.5c-3.3,1.5-7,1.7-10.6,1.2c-3.5-0.5-6.9-1.8-10.3-3.1l-0.8,3.3l-1.5,1.4c3.9,1.6,7.9,3.2,12.1,4
		c4.2,0.8,8.6,0.8,12.6-0.9c2.9-1.3,5.5-3.3,7.8-5.6c4.5-4.3,9.7-18.2,14.6-21.6"/>
	<path class="st7" d="M237.5,191.8c0.6,0.2,1.4,0.3,1.9-0.1c0.4-0.3,0.6-0.9,0.6-1.4c0-0.5-0.2-1-0.5-1.5c-0.6-1-1.3-2-2.2-2.6
		c-1.3-1-3.8-1.4-3.2,1C234.4,189,235.8,191.2,237.5,191.8z"/>
</g>
<g id="Слой_6">
	<path class="st8" d="M81.2,184.6c2-2,4.6-3.3,7.2-4.2c4.7-1.7,9.8-2.2,14.6-1c4.8,1.2,9.2,4.2,11.6,8.5c2,3.4,2.6,7.3,3,11.2
		c0.6,5.3,0.7,11.1-2.2,15.5c-1.9,2.8-4.8,4.9-7.9,6.3c-4.9,2.2-10.5,2.9-15.7,1.9s-10.1-4.1-13.1-8.6c-1.6-2.3-2.6-5.1-2.4-7.9
		c0.2-2.8,1.8-5.6,4.3-6.8c-1.5-2.6-2.4-6.9-2.4-7.6C77.8,189.1,79.3,186.4,81.2,184.6z"/>
	<path class="st8" d="M89.5,162.2c-0.2-2.8,0.1-5.8,1.3-8.4c1.4-2.9,3.9-5.3,6.7-6.8s6.1-2.3,9.3-2.8c3.2-0.4,6.5-0.5,9.7,0.2
		c3.1,0.7,6.3,2.3,8.3,4.8c3.4,4,4.1,9.9,2.4,14.9c-1.7,5-5.3,9.1-9.5,12.1c-4-4.2-9.4-7-15.1-7.8c-1.8-0.3-3.5-0.3-5.2-0.1
		c-1.6,0.2-3.2,1.5-4.8,1.5C89.8,169.8,89.7,164.1,89.5,162.2z"/>
	<path class="st8" d="M179.5,171.8c-1.1-2.2-1.4-4.8-1.7-7.2c-0.5-4.2-0.9-8.7,1.2-12.4c1.3-2.3,3.3-4.2,5.7-5.4
		c2.3-1.3,5-1.9,7.6-2.2c2.9-0.4,5.9-0.5,8.7,0.1c2.8,0.6,5.6,1.9,7.7,3.9c2.7,2.7,4.1,6.5,4.5,10.4c0.4,3.8-0.1,7.7-0.6,11.5
		c0.2-1.3-13.3,0-14.5,0.3c-2.4,0.6-4.8,1.4-6.9,2.4c-1.7,0.8-4.1,3.1-6,3C182.7,176.3,180.4,173.8,179.5,171.8z"/>
	<path class="st8" d="M225.7,185.7c-1.4-3-4-5.2-7-6.5c-3-1.3-6.4-1.7-9.6-1.7c-7.2,0-14.9,2-19.6,7.3c-3.3,3.6-5,8.6-5.6,13.5
		c-1,7.9,1.2,16.7,7.2,21.9c3.8,3.2,8.7,4.8,13.7,5.4c3.9,0.4,8,0.2,11.6-1.4c5.1-2.2,8.8-7.1,10.3-12.5c1.5-5.4,0.7-11.2-1.3-16.4
		c0.1,0.3-3.3,3.3-3.7,3.8C226.1,196.6,227.7,190.1,225.7,185.7z"/>
	<path class="st9" d="M112.3,273.1c-1.3-3.6-1.2-7.7,0.4-11.2s4.5-6.5,8-7.9c5.4-2.3,7.8-8.7,12.6-12c4.8-3.3,10.3-5.8,16.1-6.5
		c8.9-1.1,18.1,2.2,25,7.8c6.9,5.7,11.9,13.5,15.1,21.9c0.6,1.6,1.1,3.1,1.1,4.8c0,1.7-0.5,3.3-1.8,4.4c-2.6-2-6.4-1.6-9.4-0.2
		c-2.9,1.4-5.5,3.6-8.2,5.4c-7.4,4.8-16.8,6.2-25.5,4.3s-16.5-6.7-22.6-13.2C119.6,271,115.9,271.7,112.3,273.1z"/>
	<path class="st10" d="M196,193.5c2.9-3,7.1-4.7,11.3-4.6c4.2,0.1,8.3,2,11.1,5.1c0.9,1,1.7,2.1,2.1,3.3c0.3,0.9,0.4,1.9,0.4,2.8
		c0,4-1.4,8-4.1,11c-2.7,2.9-11.6,8.4-21.8-0.5c-2.1-2-3.8-5.3-3.4-8.1C192.1,199.1,193.7,195.9,196,193.5z"/>
	<path class="st10" d="M86.8,191.4c0.9-0.6,1.9-1,2.7-1.4c4-1.6,8.5-2.2,12.7-1s7.9,4.2,9.3,8.3c0.4,1.3,0.7,2.6,0.7,3.9
		c0.1,2.2-0.2,4.4-0.9,6.5c-0.4,1.3-1,2.5-1.8,3.6c-0.8,1.2-1.9,2.2-3,3c-4.3,3.1-10.3,3.9-15.2,2c-7.6-3-11.9-11.8-8.7-19.6
		C83.4,194.6,84.9,192.7,86.8,191.4z"/>
	<path class="st10" d="M99.5,168.2c-2.4-2.3-3.1-6.3-2.1-9.5s3.6-5.9,6.6-7.3c3-1.5,6.5-1.9,10-1.5c6.6,1,6.9,8.6,6.6,10
		c-0.5,2.4-1.2,4.8-2.4,6.8c-1.3,2.1-3.1,3.9-5.5,4.7"/>
	<path class="st10" d="M189.3,173c-3.8-1.7-6.5-5.6-6.7-9.7c-0.3-4.1,1.7-8.3,4.9-10.9c3.2-2.6,7.5-3.7,11.6-3.2
		c2.2,0.3,4.2,1,6.1,2.2c1.8,1.3,3.2,3,3.8,5.1c0.7,2.2,0.4,4.8-0.5,7c-0.8,2.2-2.2,4.3-3.4,6.4"/>
	<path class="st11" d="M78.6,227.7c0,0-15.8,12.4-3.6,31.7c17.1,23,48.6,11.4,48.6,11.4s10.9,13.7,28.9,13.7S180,273,180,273
		s19.6,4.4,35.1-3.8c20-11.6,18.6-30.6,18.6-30.6c11.4-18.4,8.4-22.6,8.4-22.6c4.9-5.1,4.2-16.4,4.2-16.4c-2.2-19.6-15-18.8-15-18.8
		s0,0-3.1-3.8c-2-2.3-4.2-2-5.7-1.3c-0.9,0.4-1.8-0.1-2-1.1c-0.2-1.2-0.4-3-0.6-5.9c-0.4-6.5,2.5-7.6,0-16.7
		c-2.5-9.1-13.7-12.1-13.7-12.1c3.7-6.5,2.4-13.3,2.4-13.3c-3-15-17.5-22.5-31.2-26.2c-15-4.1-30.6-4-45.7-0.3
		c-52.2,12.9-35.5,42-35.5,42s-9.4,2.4-9.9,11.6c-0.4,9.2-0.4,19.6-3.5,23.9c0,0-7-3-9,4.8s2.4,9.2,1.1,15.9
		c-0.9,4.7-4.2,9.7-6.2,12.4c-1.6,2.2-2.4,4.9-2.1,7.5c0.4,3.3,2.4,6.7,9.5,6.3L78.6,227.7z"/>
	<path class="st12" d="M87.8,198.2c1.7-2.6,4.8-4.3,7.9-4.5c3.5-0.2,7.2,1.3,9.3,4.1c2.1,2.8,2.3,7,0.3,10c-1.8,2.6-5.2,3.9-8.3,3.7
		c-4.8-0.4-10.3-3.9-10.3-9.1C86.6,201,87,199.5,87.8,198.2z"/>
	<path class="st12" d="M100.4,160c0.6-2.9,2.8-5.5,5.7-6.7c1.8-0.8,3.7-1.1,5.6-0.7c1.9,0.4,3.6,1.6,4.5,3.2s0.9,3.7,0.5,5.6
		c-0.7,2.7-2.4,5.4-4.9,6.7c-2.2,1.2-4.8,1.4-7,0.5c-2-0.8-3.5-2.9-4.1-4.9C100.2,162.6,100.1,161.3,100.4,160z"/>
	<path class="st12" d="M190.8,169.2c-2.2-1.4-3.8-3.6-4.2-6.2c-0.3-2.2,0.4-4.7,1.9-6.5s3.5-3,5.8-3.6c1.6-0.4,3.3-0.5,4.9,0
		c1.6,0.4,3,1.4,4,2.7c1,1.5,1.3,3.3,1.1,5.1c-0.2,2.2-1.2,4.4-2.7,6.1C199,169.7,194.5,171.5,190.8,169.2z"/>
	<path class="st12" d="M198.9,196.9c1.9-2.2,4.8-3.2,7.6-3c1.8,0.1,3.6,0.7,4.9,2c1.3,1.2,1.9,2.9,2.2,4.6c0.5,2.6,0.2,5.6-1.6,7.5
		c-1.3,1.5-3.1,2.2-5.1,2.5c-2.1,0.4-4.2,0.2-6-0.8c-3.2-1.8-4.7-6.5-3.7-9.9C197.6,198.8,198.1,197.8,198.9,196.9z"/>
	<path class="st5" d="M191.8,248c-1.4-2.6-3.9-4.4-6.5-5.6c-2.5-1.1-5.6-1.8-8.1-0.5c-2.2,1.1-3.6,3.7-3.5,6.2
		c0.1,2.4,1.5,4.9,3.5,6.4c2.1,1.5,4.6,2.2,7,2.1c2-0.1,5.7,0.5,7.1-1C193.2,253.8,192.9,250.2,191.8,248z"/>
	<g>
		<path class="st13" d="M79.9,199.4c-2.6,1.8-4.5,4.4-5.3,7.2c-0.4,1.5-0.6,2.9-0.5,4.4c0,0.4,0,0.8,0,1.1l0.1,1.1
			c0.1,0.8,0.3,1.5,0.4,2.2c0.8,2.9,1.9,5.8,3.4,8.3c1.6,2.5,3.6,4.7,6.1,6.4s5.2,2.8,8.1,3.7c0.7,0.2,1.5,0.4,2.2,0.6l1.1,0.3
			l1.1,0.2c1.5,0.2,2.9,0.2,4.4,0.2c3-0.3,6-1,9-2c2.9-1,5.9-2.2,8.7-3.5c-2.5,1.9-5.3,3.5-8.2,4.8c-2.9,1.3-6,2.3-9.2,2.8
			c-0.8,0.1-1.7,0.2-2.4,0.2c-0.9,0-1.7,0-2.5-0.1l-1.3-0.2l-1.2-0.2c-0.8-0.2-1.6-0.4-2.3-0.6c-3.1-0.8-6.3-2.2-9-3.9
			c-2.7-2-5.1-4.4-6.7-7.3c-1.7-2.9-2.7-6.1-3.2-9.2c-0.6-3.2-0.5-6.6,0.8-9.8C74.6,203.1,77,200.6,79.9,199.4z"/>
	</g>
	<g>
		<path class="st13" d="M186.1,228.5c2.8,2,5.9,3.6,8.9,4.9c3,1.4,6.4,2.3,9.6,2.7c3.2,0.4,6.5,0.3,9.7-0.5c3.2-0.7,6.2-2,8.8-3.8
			c2.6-1.9,4.9-4.2,6.3-7c0.8-1.4,1.2-2.8,1.3-4.4c0-0.4,0.1-0.8,0.1-1.2v-1.2c0-0.8-0.1-1.7-0.1-2.4c-0.3-3.3-1-6.6-1.9-9.9
			c-0.8-3.3-1.9-6.5-2.8-9.8c1.7,3,3,6.2,4.2,9.4c1.2,3.2,2.2,6.5,2.7,10.1c0.2,1.8,0.5,3.5,0.3,5.4c-0.1,1.9-0.6,3.7-1.4,5.4
			c-1.6,3.3-4.1,6.1-7,8.2c-3,2.1-6.5,3.4-10,4.1c-3.5,0.7-7.1,0.8-10.7,0.1c-3.5-0.7-6.7-2.1-9.8-3.7
			C191.4,232.9,188.6,231,186.1,228.5z"/>
	</g>
	<g>
		<path class="st13" d="M82,202.3c-1.9-2.4-3.3-5.3-4.1-8.3c-0.8-3-0.9-6.5,0.4-9.6c0.2-0.4,0.3-0.8,0.5-1.2l0.5-1.1
			c0.3-0.7,0.8-1.4,1.2-2.1c0.9-1.4,1.8-2.6,2.7-3.8c2.1-2.4,4.5-4.6,7.2-6.3c2.8-1.6,6-2.6,9.3-2.9c3.2-0.2,6.5,0.4,9.5,1.8
			c2.9,1.4,5.5,3.4,7.5,5.7c2.1,2.3,3.8,4.9,5.1,7.7c-1.8-2.5-3.8-4.8-6.1-6.7s-4.8-3.6-7.4-4.6c-2.6-1-5.6-1.5-8.4-1.2
			c-2.8,0.3-5.6,1.2-8,2.6s-4.7,3.3-6.6,5.6c-2,2.2-3.7,4.7-4.9,7.2c-0.4,0.6-0.5,1.3-0.8,2c-0.1,0.3-0.1,0.7-0.2,1.1
			c-0.1,0.4-0.1,0.7-0.2,1.1c-0.2,1.5-0.1,2.9,0.1,4.3C79.7,196.8,80.7,199.6,82,202.3z"/>
	</g>
	<g>
		<path class="st13" d="M222.2,199.4c0.7-0.5,1.2-1.1,1.7-1.7c0.5-0.6,0.8-1.3,1.1-2.1c0.6-1.5,0.9-2.9,1-4.5s0-3.1-0.3-4.6
			c-0.1-0.4-0.1-0.8-0.2-1.1l-0.3-1.1c-0.3-0.7-0.5-1.4-0.9-2.1c-1.3-2.6-3.3-5-5.8-6.7c-1.2-0.9-2.4-1.7-3.8-2.3
			c-1.4-0.7-2.7-1.2-4.2-1.6c-2.8-0.8-6-1.1-9-0.8c-3,0.2-6,1.1-8.8,2.2c-5.7,2.3-10.6,6.5-14.6,11.5c3-5.7,7.6-10.7,13.6-13.6
			c6-2.9,12.9-3.9,19.6-2.2c3.2,1,6.4,2.4,8.9,4.6c1.3,1.1,2.5,2.2,3.5,3.6c0.3,0.3,0.5,0.7,0.8,1.1c0.2,0.4,0.5,0.7,0.7,1.1
			c0.4,0.8,0.8,1.5,1.1,2.2c0.4,0.8,0.6,1.6,0.8,2.4c0.2,0.9,0.4,1.7,0.4,2.5c0.2,1.7,0.1,3.3-0.2,5c-0.3,1.7-0.8,3.2-1.7,4.7
			C224.9,197.5,223.7,198.7,222.2,199.4z"/>
	</g>
	<path class="st11" d="M207.8,140.5c0,0-17.1-7.3-26.5-1.2c-9.4,6.3-16,15.6-17.6,26.9c-1.6,11.2-0.8,19.3-0.8,19.3"/>
	<path class="st11" d="M96.3,142.2c0,0,13.7-7.2,21.5-4.6c7.8,2.6,17.7,8.9,19.7,20.9c2.1,12,1.3,25.9,1.3,25.9"/>
	<g>
		<path class="st13" d="M143.4,184.4c-1.1,0.7-2.2,1.2-3.3,1.5c-0.6,0.2-1.1,0.3-1.7,0.4c-0.6,0.2-1.1,0.3-1.7,0.5
			c-2.2,0.7-4.2,1.8-5.9,3c-1.8,1.3-3.2,3-4.1,5c-0.9,2-1.4,4.2-1.7,6.5c-0.5,4.5-0.2,9.1,0.9,13.5c0.5,2.2,1.2,4.4,1.9,6.7
			c0.6,2.3,1,4.6,1.8,6.6c0.4,1,0.8,2,1.4,2.7c0.6,0.7,1.2,1.1,1.9,1.1c0.3,0,0.6-0.1,0.8-0.2c0.1-0.1,0.2-0.2,0.3-0.3
			c0.1-0.2,0.2-0.3,0.3-0.5c0.4-0.8,0.6-1.9,0.8-2.9c0.3-2.2,0.4-4.5,0.6-6.9c0.2-2.2,0.1-4.6,0.2-7c0.1-2.3,0.4-4.8,0.8-7.2
			c0.5-2.3,1.2-4.8,2.4-7c1.2-2.2,3.1-4.3,5.5-5.5c2.3-1.2,5.1-1.6,7.5-1.5c2.4,0.1,5.1,0.6,7.4,2c2.3,1.3,4.2,3.4,5.3,5.8
			c1.1,2.3,1.5,4.9,1.7,7.3c0.2,2.4,0,4.9-0.1,7.2l-0.3,3.5c-0.1,1.2-0.2,2.4-0.4,3.6c-0.3,2.3-0.7,4.7-0.7,6.7c0,0.5,0.1,1,0.2,1.3
			c0.1,0.3,0.2,0.4,0.4,0.5c0,0,0,0,0.1,0h0.1c0.1,0,0.2,0.1,0.3,0.1s0.1,0,0.2,0h0.1c0.1,0,0.4-0.2,0.7-0.4
			c0.6-0.6,1.2-1.6,1.8-2.5c0.6-1,1.1-2,1.7-3c1.1-2.1,2.1-4.2,3.1-6.3c1-2.1,2-4.2,2.6-6.4c0.8-2.2,1.4-4.3,1.7-6.5
			c0.3-2.2,0.4-4.4-0.1-6.5c-0.3-1-0.6-2-1.2-2.8l-0.4-0.6l-0.5-0.6c-0.4-0.4-0.8-0.8-1.2-1.2c-1.7-1.5-3.5-2.8-5.5-4
			c-2-1.2-4-2.2-6.2-2.9c-2.2-0.8-4.2-1.7-6.5-2.7c2.4-0.7,5-0.3,7.2,0.5c2.2,0.8,4.5,1.9,6.5,3c2.2,1.2,4.1,2.5,6,4.2
			c0.5,0.4,0.9,0.9,1.4,1.3l0.7,0.7l0.6,0.8c0.8,1.2,1.3,2.3,1.6,3.6c0.6,2.5,0.6,5.1,0.3,7.5c-0.3,2.4-1,4.8-1.8,7.1
			c-0.8,2.2-1.8,4.5-2.7,6.6c-1,2.2-2.1,4.2-3.1,6.4c-0.5,1.1-1.1,2.2-1.7,3.2s-1.3,2.2-2.2,3.2c-0.6,0.5-1.4,1.1-2.3,1.3
			c-0.3,0-0.5,0-0.8,0c-0.2,0-0.5-0.1-0.7-0.1s-0.4-0.1-0.6-0.2l-0.3-0.1l-0.3-0.2c-0.5-0.2-0.8-0.6-1.2-1c-0.3-0.4-0.5-0.8-0.7-1.2
			c-0.3-0.8-0.3-1.5-0.4-2.2c0-1.4,0.1-2.5,0.3-3.7l0.5-3.5c0.2-1.2,0.3-2.2,0.4-3.4l0.3-3.5c0.2-2.3,0.3-4.6,0.2-6.8
			c-0.1-2.2-0.5-4.4-1.4-6.4c-0.9-2-2.2-3.5-4-4.5c-1.8-1-3.9-1.5-6.2-1.6c-2.2-0.1-4.3,0.2-6.1,1.1c-1.8,0.9-3.2,2.4-4.3,4.3
			c-1.1,1.9-1.7,4-2.2,6.2c-0.4,2.2-0.7,4.5-0.8,6.7c-0.1,2.3-0.1,4.6-0.2,7c-0.2,2.3-0.2,4.7-0.6,7.1c-0.2,1.3-0.4,2.4-1.1,3.8
			c-0.1,0.3-0.4,0.7-0.6,1c-0.3,0.3-0.5,0.7-0.9,0.9c-0.7,0.6-1.7,0.8-2.5,0.8c-0.4,0-0.9-0.1-1.3-0.2c-0.4-0.2-0.8-0.3-1.2-0.5
			l-0.5-0.3c-0.2-0.1-0.3-0.3-0.4-0.4c-0.3-0.3-0.5-0.6-0.8-0.8c-0.9-1.2-1.4-2.3-1.8-3.5c-0.8-2.3-1.3-4.8-1.8-6.9
			c-0.6-2.2-1.4-4.5-1.9-6.8c-1.1-4.7-1.5-9.6-0.8-14.5c0.4-2.4,0.9-4.8,2-7.1c1.1-2.3,2.8-4.2,4.9-5.7c2.1-1.5,4.3-2.5,6.6-3.2
			c1.2-0.4,2.3-0.7,3.5-0.9C141,183.8,142.3,183.8,143.4,184.4z"/>
	</g>
	<g>
		<path class="st13" d="M141.3,204.6c1.1,0,2.1,0.5,3,1c0.9,0.5,1.8,1,2.6,1.3c1.8,0.6,3.7,0.7,5.7,0.4c1.9-0.3,3.8-0.9,5.7-1.6
			l2.8-1.1c1-0.4,1.9-0.7,2.7-1.4c-0.5,1-1.5,1.6-2.2,2.2c-0.9,0.6-1.8,1.1-2.6,1.7c-1.9,1-3.8,1.8-6,2.2c-2.2,0.3-4.5,0.1-6.5-0.9
			C144.3,207.1,143.2,205.4,141.3,204.6z"/>
	</g>
	<path class="st14" d="M137.5,212.3c0,0,5.7,6.2,13.3,6.1c7.7-0.1,13.9-5.2,13.9-5.2"/>
	<path class="st14" d="M196,193.5c2.9-3,7.1-4.7,11.3-4.6c4.2,0.1,8.3,2,11.1,5.1c0.9,1,1.7,2.1,2.1,3.3c0.3,0.9,0.4,1.9,0.4,2.8
		c0,4-1.4,8-4.1,11c-2.7,2.9-11.6,8.4-21.8-0.5c-2.1-2-3.8-5.3-3.4-8.1C192.1,199.1,193.7,195.8,196,193.5z"/>
	<path class="st14" d="M86.8,191.4c0.9-0.6,1.9-1,2.7-1.4c4-1.6,8.5-2.2,12.7-1s7.9,4.2,9.3,8.3c0.4,1.3,0.7,2.6,0.7,3.9
		c0.1,2.2-0.2,4.4-0.9,6.5c-0.4,1.3-1,2.5-1.8,3.6c-0.8,1.2-1.9,2.2-3,3c-4.3,3.1-10.3,3.9-15.2,2c-7.6-3-11.9-11.8-8.7-19.6
		C83.4,194.5,84.9,192.7,86.8,191.4z"/>
	<path class="st14" d="M99.5,168.1c-2.4-2.3-3.1-6.3-2.1-9.5s3.6-5.9,6.6-7.3c3-1.5,6.5-1.9,10-1.5c6.6,1,6.9,8.6,6.6,10
		c-0.5,2.4-1.2,4.8-2.4,6.8c-1.3,2.1-3.1,3.9-5.5,4.7"/>
	<path class="st14" d="M189.3,172.9c-3.8-1.7-6.5-5.6-6.7-9.7c-0.3-4.1,1.7-8.3,4.9-10.9c3.2-2.6,7.5-3.7,11.6-3.2
		c2.2,0.3,4.2,1,6.1,2.2c1.9,1.2,3.2,3,3.8,5.1c0.7,2.2,0.4,4.8-0.5,7c-0.8,2.2-2.2,4.3-3.4,6.4"/>
	<g>
		<path class="st13" d="M230.6,180.1c0.1,3.3,0.3,6.5,0.5,9.9c0.3,3.2,0.6,6.5,1.1,9.7c0.4,3.2,1,6.5,1.6,9.7
			c0.6,3.2,1.2,6.5,1.7,9.7c-1.3-3-2.3-6.2-3.1-9.4c-0.9-3.2-1.5-6.5-2-9.8c-0.4-3.3-0.7-6.6-0.7-10
			C229.7,186.6,229.9,183.3,230.6,180.1z"/>
	</g>
	<g>
		<path class="st13" d="M242.4,215.7c-2.9,0.4-5.2,2.4-6.6,4.8c-1.5,2.3-2.2,5.2-3.1,7.9c-0.9,2.8-2.1,5.6-3.3,8.2
			c-1.3,2.6-2.8,5.3-4.5,7.7c-1.7,2.4-3.6,4.9-6,6.8c-2.4,2-5.4,3.4-8.5,3.7c-3.1,0.4-6.2,0-9.1-0.8c-2.8-0.9-5.6-2.1-8.1-3.4
			c2.8,0.8,5.7,1.7,8.5,2.1c2.8,0.5,5.7,0.5,8.4-0.1c5.5-1.1,9.4-5.3,12.5-10c3.2-4.7,6-9.9,8.1-15.2c1.1-2.6,2.2-5.6,4.1-8
			c1-1.2,2.2-2.2,3.4-3C239.4,215.9,240.9,215.5,242.4,215.7z"/>
	</g>
	<g>
		<path class="st13" d="M190.7,255.5c5,1.4,9.9,2.9,14.8,3.2c2.4,0.2,4.9,0,7.1-0.7c2.3-0.6,4.3-1.8,6.4-3.2c1-0.7,2-1.6,2.8-2.3
			c0.5-0.5,0.9-0.8,1.3-1.3c0.4-0.5,0.8-0.9,1.2-1.4c0.7-1,1.4-2.1,2.1-3.1c0.7-1.1,1.4-2.2,2.1-3.2c1.3-2.2,2.6-4.4,4.2-6.5
			c0.8-1.1,1.6-2.2,2.4-3c0.9-1,1.9-1.9,2.9-2.5c-1,0.9-1.7,2-2.3,3c-0.7,1.1-1.3,2.2-1.9,3.3c-1.2,2.2-2.2,4.6-3.4,6.8
			c-1.2,2.3-2.3,4.6-3.8,6.8c-0.4,0.6-0.8,1.1-1.2,1.7s-1,1.1-1.5,1.5c-1,0.9-2,1.8-3,2.6c-2.1,1.7-4.7,2.9-7.3,3.6
			c-2.7,0.6-5.5,0.7-8.1,0.3c-2.6-0.4-5.2-1.2-7.6-2.2C195.2,258,193,256.8,190.7,255.5z"/>
	</g>
	<g>
		<path class="st13" d="M191.7,248c-1.1-2.1-3-3.4-5.1-4.2c-2.1-0.9-4.1-1.6-6.3-1.8c-1.1-0.1-2.1,0-3,0.4c-1,0.4-1.9,1.1-2.4,2.1
			c-0.6,0.9-1,2.1-1,3.1c0,1.1,0.3,2.2,0.8,3.1c1.1,2,2.7,3.3,4.7,4.1c1,0.4,2.1,0.6,3,0.7c0.5,0,1.1,0.1,1.6,0c0.6,0,1.2,0,1.8,0
			c1.2,0.1,2.2,0.1,3.2,0c0.5-0.1,1-0.2,1.4-0.3c0.4-0.2,0.7-0.5,1-0.9C192.6,252.7,192.7,250.1,191.7,248z M191.9,247.9
			c0.5,1.1,0.9,2.2,1,3.3s0.2,2.4-0.4,3.6c-0.3,0.6-0.7,1.2-1.3,1.7c-0.6,0.4-1.3,0.6-1.9,0.8c-1.3,0.3-2.4,0.2-3.6,0.2
			c-0.6,0-1.2,0-1.7,0c-0.6,0-1.3,0-1.9-0.1c-1.3-0.2-2.4-0.5-3.6-1.1c-2.2-1-4.1-3-4.9-5.3c-0.9-2.3-0.6-4.9,0.6-6.9
			c0.6-1.1,1.4-2,2.4-2.6c1.1-0.7,2.3-1,3.6-1.1c2.5,0,4.9,1,6.7,2.2C189.2,244.1,190.8,245.8,191.9,247.9z"/>
	</g>
	<g>
		<path class="st15" d="M172.3,104.2c4.3,9.6,6.9,19.7,7.8,30.2c-7.6-1.6-15.5-1.4-23.3-1.2c-10.4,0.3-20.7,0.8-31.1,1
			c0.2-10.4,2.7-20.6,7.2-29.9C146.6,104.6,158.5,104,172.3,104.2z"/>
		<path class="st16" d="M131.2,129.8c0.5-2.1,0.9-4,1.4-6.1c1,1.7,2.1,3.2,3,4.9c1.2-1.8,2.2-3.7,3.1-5.7c0,2.3,0,4.8,0,7.1"/>
		<g>
			<g>
				<path class="st17" d="M143,124.4c0.8,1,1.5,1.9,2.5,2.4c0.6,0.4,1.1-0.6,0.5-0.9c-1-0.6-1.7-1.5-2.3-2.3
					C143.3,123.2,142.5,123.9,143,124.4L143,124.4z"/>
			</g>
		</g>
		<g>
			<g>
				<path class="st17" d="M146.5,126.3c0.8-0.7,1.6-1.5,2.3-2.2c0.5-0.5-0.3-1.2-0.8-0.8c-0.8,0.8-1.6,1.5-2.3,2.2
					C145.2,126,145.9,126.8,146.5,126.3L146.5,126.3z"/>
			</g>
		</g>
		<g>
			<g>
				<path class="st17" d="M145.2,126.6c-0.1,0.9-0.1,1.8-0.1,2.6c0,0.7,1.1,0.7,1.1,0c-0.1-0.9,0-1.8,0.1-2.6
					C146.4,125.9,145.3,125.9,145.2,126.6L145.2,126.6z"/>
			</g>
		</g>
		<g>
			<g>
				<path class="st17" d="M153.8,129.1c0.8-2,1.8-3.8,3-5.6c-0.3,0-0.6,0-0.9,0c1.5,2.1,2.7,4.1,3.9,6.4c0.3,0.6,1.2,0.1,0.9-0.5
					c-1.2-2.2-2.4-4.3-3.9-6.4c-0.2-0.3-0.7-0.3-0.9,0c-1.3,1.8-2.3,3.7-3.1,5.8C152.5,129.4,153.5,129.7,153.8,129.1L153.8,129.1z"
					/>
			</g>
		</g>
		<g>
			<g>
				<path class="st17" d="M154.3,128.1c1.4,0,2.7,0,4,0c0.7,0,0.7-1.1,0-1.1c-1.4,0-2.7,0-4,0C153.6,127,153.6,128.1,154.3,128.1
					L154.3,128.1z"/>
			</g>
		</g>
		<g>
			<g>
				<path class="st17" d="M162.7,129c0-1-0.1-2-0.1-2.9c0-0.5,0-1.1-0.1-1.6c0-0.7-0.3-0.9,0.6-0.9c0.5,0,1,0,1.4,0.2
					c0.5,0.1,0.9,0.4,1.1,1c-0.3,0.3-0.6,0.7-0.8,1c-0.7,0.4-2.2,0.1-2.8,0c-0.7-0.1-0.7,1,0,1.1c1.4,0.2,3.4,0.4,4.4-0.8
					c0.9-1.1,0-2.5-1.1-3c-0.8-0.4-3.1-0.9-3.7,0.1c-0.4,0.6-0.1,1.7-0.1,2.3c0,1.2,0.1,2.4,0.1,3.6
					C161.7,129.7,162.7,129.7,162.7,129L162.7,129z"/>
			</g>
		</g>
		<g>
			<g>
				<path class="st17" d="M170,129.4c-0.1-2.1-0.3-4-0.5-6.1c-0.2,0.2-0.4,0.4-0.5,0.5c1-0.1,2.5-0.3,3.2,0.6c0.5,0.3,0.5,0.6,0,1.2
					c-0.2,0.1-0.5,0.2-0.7,0.2c-0.6,0.1-1.2,0.1-1.9,0.1c-0.7-0.1-1,0.9-0.3,1c1.3,0.2,4.4,0.2,4.3-1.9c-0.1-2.2-3.1-2.3-4.7-2.2
					c-0.3,0-0.6,0.2-0.5,0.5c0.2,2.1,0.4,4,0.5,6.1C169,130.1,170.1,130.1,170,129.4L170,129.4z"/>
			</g>
		</g>
		<g>
			<g>
				<path class="st17" d="M133.8,115.1c-0.3,1.7-0.5,3.3-0.7,5c-0.1,0.7,1,0.7,1.1,0c0.1-1.6,0.3-3.1,0.6-4.7
					C134.8,114.7,133.8,114.4,133.8,115.1L133.8,115.1z"/>
			</g>
		</g>
		<g>
			<g>
				<path class="st17" d="M134.8,115.3c1.4,0.1,2.7,1.1,2,2.5c-0.6,1.2-1.9,1.7-3.1,1.3c-0.7-0.2-1,0.9-0.3,1c2,0.5,4-0.4,4.6-2.4
					c0.6-2.1-1.2-3.4-3.1-3.5C134.1,114.3,134.1,115.3,134.8,115.3L134.8,115.3z"/>
			</g>
		</g>
		<g>
			<g>
				<path class="st17" d="M138.8,115.1c0.1,1.7,0,3.2-0.2,4.9c0,0.3,0.1,0.7,0.5,0.7c1.1-0.1,2.1,0.2,3.1,0c0.7-0.1,0.4-1.2-0.3-1
					c-1,0.2-2-0.1-2.8,0c0.2,0.2,0.3,0.5,0.5,0.7c0.2-1.8,0.3-3.4,0.3-5.2C139.9,114.5,138.8,114.4,138.8,115.1L138.8,115.1z"/>
			</g>
		</g>
		<g>
			<g>
				<path class="st17" d="M140,117.9c0.7,0,1.4,0.1,2,0.1c0.7,0,0.7-1,0-1.1c-0.7,0-1.4-0.1-2-0.1
					C139.4,116.8,139.4,117.9,140,117.9L140,117.9z"/>
			</g>
		</g>
		<g>
			<g>
				<path class="st17" d="M139.9,115.3c0.9,0.1,1.7,0.1,2.5,0.1c0.7,0,0.7-1.1,0-1.1c-0.9,0-1.7,0-2.5-0.1
					C139.2,114.3,139.2,115.3,139.9,115.3L139.9,115.3z"/>
			</g>
		</g>
		<g>
			<g>
				<path class="st17" d="M144.5,115.7c0.6,1.3,1.3,2.6,1.9,3.9c0.1,0.3,0.6,0.4,0.8,0.1c1.1-1.4,2.2-2.8,3-4.4
					c0.3-0.6-0.6-1.1-0.9-0.5c-0.9,1.5-1.8,2.8-2.8,4.2c0.3,0,0.6,0.1,0.8,0.1c-0.6-1.3-1.3-2.6-1.9-3.9
					C145.1,114.7,144.2,115.1,144.5,115.7L144.5,115.7z"/>
			</g>
		</g>
		<g>
			<g>
				<path class="st17" d="M150.7,115.1c0,1.5,0,3-0.1,4.5c0,0.4,0.4,0.6,0.7,0.5c0.8-0.2,1.5-0.2,2.2-0.2c0.7,0,0.7-1.1,0-1.1
					c-0.9,0-1.7,0.1-2.5,0.3c0.2,0.2,0.5,0.3,0.7,0.5c0.1-1.5,0.2-3,0.1-4.5C151.6,114.6,150.7,114.6,150.7,115.1L150.7,115.1z"/>
			</g>
		</g>
		<g>
			<g>
				<path class="st17" d="M151.9,117.5c0.5-0.1,1.1-0.1,1.6-0.1c0.7,0,0.7-1.1,0-1.1c-0.6,0-1.3,0.1-1.9,0.2
					C151,116.6,151.2,117.6,151.9,117.5L151.9,117.5z"/>
			</g>
		</g>
		<g>
			<g>
				<path class="st17" d="M151.7,115.2c0.6-0.2,1.3-0.3,1.9-0.3c0.7,0,0.7-1.1,0-1.1s-1.5,0.1-2.2,0.3
					C150.9,114.4,151.1,115.3,151.7,115.2L151.7,115.2z"/>
			</g>
		</g>
		<g>
			<g>
				<path class="st17" d="M156.4,115.4c0,0.7,0.1,1.5,0.1,2.2c0,0.5-0.1,1.2,0.2,1.6c0.3,0.3,0.8,0.3,1.2,0.4c0.7,0.1,1.3,0,2-0.1
					c0.7-0.1,0.4-1.1-0.3-1c-0.5,0.1-1.7,0.3-2.2,0c0.1,0.1,0.2,0.2,0.2,0.3c-0.1-0.5-0.1-1.2-0.1-1.7c0-0.6-0.1-1.1-0.1-1.7
					C157.4,114.8,156.3,114.8,156.4,115.4L156.4,115.4z"/>
			</g>
		</g>
		<g>
			<g>
				<path class="st17" d="M163.9,113.8c-1.4,0.5-2.3,1.9-2.1,3.3c0.3,1.5,2,2.8,3.4,2.2c1.4-0.6,2.2-2.4,1.8-3.9
					C166.6,114.1,165,112.9,163.9,113.8c-0.7,0.2-0.2,1.2,0.4,0.8c0.9-0.5,1.9,0.9,1.9,1.6c0,0.9-0.6,1.9-1.4,2.1
					c-1,0.3-1.9-0.6-2-1.6c-0.1-0.9,0.5-1.6,1.3-1.9C164.7,114.6,164.5,113.6,163.9,113.8L163.9,113.8z"/>
			</g>
		</g>
		<g>
			<g>
				<path class="st17" d="M169.7,118.7c-0.1-0.7-0.2-1.4-0.3-2.1c0-0.4-0.1-0.7-0.1-1.1c0-0.2,0-0.5,0-0.7c0-0.4,0-0.5,0-0.2
					c-0.1,0.2,0,0.2,0.3,0.1c0.2,0,0.4,0,0.6,0.1c0.3,0.1,0.7,0.2,0.9,0.5c0.6,0.8-0.8,1.3-1.4,1.1c-0.7-0.1-1,0.9-0.3,1
					c2.2,0.5,4.1-2.2,1.7-3.4c-0.6-0.3-2.2-0.8-2.7,0.1c-0.2,0.5-0.1,1.3,0,1.8c0.1,0.9,0.2,1.9,0.3,2.7
					C168.7,119.4,169.8,119.4,169.7,118.7L169.7,118.7z"/>
			</g>
		</g>
		<g>
			<g>
				<path class="st17" d="M135,107.7c-0.3,1.3-0.6,2.5-1,3.8c-0.2,0.7,0.9,1,1,0.3c0.3-1.3,0.6-2.5,1-3.8
					C136.2,107.3,135.1,107,135,107.7L135,107.7z"/>
			</g>
		</g>
		<g>
			<g>
				<path class="st17" d="M134.4,107.8c1.5,0.1,4.1,0.2,4,2.2c-0.1,2.2-2.7,1.7-4.2,1.3c-0.7-0.2-0.9,0.8-0.3,1
					c2.1,0.6,5.1,0.9,5.5-2c0.4-2.9-2.8-3.5-5.1-3.6C133.8,106.7,133.8,107.8,134.4,107.8L134.4,107.8z"/>
			</g>
		</g>
		<g>
			<g>
				<path class="st17" d="M143.7,107c-1.5,0.4-3.1,1.3-2.6,3.1c0.4,1.5,2.1,2.3,3.5,2.2c1.5-0.2,2.8-1.4,2.7-2.9
					c-0.1-1.8-1.8-2.6-3.4-2.7c-0.7,0-0.7,1,0,1.1c1,0.1,2.2,0.5,2.3,1.6c0.2,1-0.7,1.8-1.7,2c-0.9,0.2-1.9-0.2-2.3-1
					c-0.9-1.4,0.7-2,1.8-2.2C144.6,107.9,144.3,106.9,143.7,107L143.7,107z"/>
			</g>
		</g>
		<g>
			<g>
				<path class="st17" d="M151.8,111.1c0.2-1,0.3-2.1,0.5-3c-0.3,0.1-0.6,0.2-0.9,0.2c0.7,0.8,1.5,1.6,2.2,2.3
					c0.4,0.4,1.1,1.4,1.8,1.4c0.6,0,0.7-0.6,0.8-1c0.3-1.2,0.5-2.2,0.7-3.4c0.1-0.7-0.9-1-1-0.3c-0.1,0.7-0.2,1.3-0.4,1.9
					c-0.1,0.3-0.2,1.7-0.4,1.8c0.2,0,0.4,0,0.5,0c-0.7-0.4-1.3-1.2-1.9-1.7c-0.6-0.6-1.2-1.2-1.7-1.8c-0.3-0.3-0.8-0.2-0.9,0.2
					c-0.2,1-0.3,2.1-0.5,3C150.7,111.5,151.7,111.8,151.8,111.1L151.8,111.1z"/>
			</g>
		</g>
		<g>
			<g>
				<path class="st17" d="M160.5,107.2c-1.6,0-2.5,1.5-2.6,2.9c-0.1,1.7,1.4,2.5,2.9,2.4c1.4-0.1,2.8-1.1,2.9-2.5
					c0.1-1.8-1.7-2.5-3-3c-0.7-0.2-0.9,0.8-0.3,1c0.8,0.3,1.7,0.5,2.2,1.3c0.6,1-0.4,1.9-1.3,2.2c-0.9,0.3-2.1,0.1-2.2-1
					c-0.2-1,0.5-2.2,1.6-2.2C161.2,108.3,161.2,107.2,160.5,107.2L160.5,107.2z"/>
			</g>
		</g>
		<g>
			<g>
				<path class="st17" d="M168.2,111.2c0-0.7-0.1-1.5-0.1-2.2c0-0.4,0-1-0.2-1.4c-0.5-0.9-2.5-0.6-3.3-0.5c0,0.4,0,0.7,0,1.1
					c1.7-0.2,3.4-0.3,5.1-0.4c0.7,0,0.7-1.1,0-1.1c-1.7,0.1-3.4,0.2-5.1,0.4c-0.7,0.1-0.7,1.1,0,1.1c0.5,0,1.1,0,1.6,0
					c0.1,0,0.3,0,0.4,0c0.4,0,0.5,0.1,0.4,0.5c0.2,0.8,0.1,1.8,0.1,2.5C167.1,111.9,168.2,111.9,168.2,111.2L168.2,111.2z"/>
			</g>
		</g>
	</g>
	<g>
		<g>
			<path class="st0" d="M100.8,148.5c2.9-2,6.2-2.9,9.8-2.9c2.4,0,2.4-3.8,0-3.8c-4.2,0-8.1,1.2-11.6,3.4
				C96.8,146.5,98.7,149.9,100.8,148.5L100.8,148.5z"/>
		</g>
	</g>
	<g>
		<g>
			<path class="st0" d="M102.8,128.1c3.5-6.8,8.9-12.1,15.8-15.5c2.2-1.1,0.3-4.4-2-3.3c-7.4,3.6-13.4,9.6-17.2,16.9
				C98.4,128.3,101.7,130.3,102.8,128.1L102.8,128.1z"/>
		</g>
	</g>
	<g>
		<g>
			<path class="st0" d="M106.9,160.4c0-1,0.9-1.5,1.9-1.4c1.1,0.1,2-1,2-2c0-1.1-0.9-1.9-2-2c-3.1-0.2-5.5,2.2-5.7,5.3
				c-0.1,1.1,0.9,2,2,2C106.1,162.4,106.9,161.5,106.9,160.4L106.9,160.4z"/>
		</g>
	</g>
	<g>
		<g>
			<path class="st0" d="M111.3,164.8c2.4,0,2.4-3.8,0-3.8C108.8,160.9,108.8,164.8,111.3,164.8L111.3,164.8z"/>
		</g>
	</g>
	<g>
		<g>
			<path class="st0" d="M94,178c1.8-1.8,3.9-2.6,6.4-2.5c2.4,0.1,2.4-3.7,0-3.8c-3.4-0.1-6.6,1.2-9.1,3.6
				C89.5,177,92.2,179.8,94,178L94,178z"/>
		</g>
	</g>
	<g>
		<g>
			<path class="st0" d="M93.1,201.8c1-1.5,2.6-2.2,4.5-2.2c2.4,0.1,2.4-3.8,0-3.8c-3.1-0.1-6.1,1.5-7.7,4.1
				C88.4,201.9,91.7,203.8,93.1,201.8L93.1,201.8z"/>
		</g>
	</g>
	<g>
		<g>
			<path class="st0" d="M100.6,207c2.4,0,2.4-3.8,0-3.8C98.1,203.2,98.1,207,100.6,207L100.6,207z"/>
		</g>
	</g>
	<g>
		<g>
			<path class="st0" d="M146.9,201.5c0.9-0.7,1.7-1.4,2.5-2.1c0.8-0.6,0.7-2.1,0-2.7c-0.9-0.8-1.9-0.7-2.7,0
				c-0.9,0.7-1.7,1.4-2.5,2.1c-0.8,0.6-0.7,2.1,0,2.7C145,202.3,146,202.2,146.9,201.5L146.9,201.5z"/>
		</g>
	</g>
	<g>
		<g>
			<path class="st0" d="M192.1,160.2c0.1-0.9,1.2-1.8,2.2-1.8c2.4,0.1,2.4-3.8,0-3.8c-3.2-0.1-5.7,2.4-6.1,5.6c-0.1,1.1,1,2,2,2
				C191.3,162.1,192,161.2,192.1,160.2L192.1,160.2z"/>
		</g>
	</g>
	<g>
		<g>
			<path class="st0" d="M194.3,144.7c2.7-0.1,5.2,0.4,7.6,1.7c2.2,1.2,4.1-2.2,2-3.3c-2.9-1.6-6.2-2.3-9.5-2.2
				C191.8,141,191.8,144.8,194.3,144.7L194.3,144.7z"/>
		</g>
	</g>
	<g>
		<g>
			<path class="st0" d="M198.4,166.1c2.4,0,2.4-3.8,0-3.8C195.8,162.2,195.8,166.1,198.4,166.1L198.4,166.1z"/>
		</g>
	</g>
	<g>
		<g>
			<path class="st0" d="M207.6,176.7c1.8,0,3.4,0.5,4.9,1.3c2.2,1.2,4.1-2.1,2-3.3c-2.2-1.2-4.4-1.9-6.8-1.9
				C205,172.9,205,176.7,207.6,176.7L207.6,176.7z"/>
		</g>
	</g>
	<g>
		<g>
			<path class="st0" d="M202.6,202c0.2-1.5,1.3-2.5,2.7-2.6c2.4-0.1,2.4-3.9,0-3.8c-3,0.1-6,2.3-6.5,5.5c-0.2,1,0.3,2.1,1.4,2.3
				C201.1,203.5,202.4,202.9,202.6,202L202.6,202z"/>
		</g>
	</g>
	<g>
		<g>
			<path class="st0" d="M208.4,206.6c2.4,0,2.4-3.8,0-3.8C205.9,202.6,205.9,206.6,208.4,206.6L208.4,206.6z"/>
		</g>
	</g>
	<g>
		<path class="st13" d="M120.3,264c0.9,0.7,1.7,1.5,2.2,2.2c0.6,0.8,1.2,1.6,1.7,2.4c0.5,0.8,1,1.7,1.5,2.5c0.5,0.9,0.9,1.8,1.3,2.8
			c-1.2-0.2-2.2-0.8-3-1.4c-0.9-0.7-1.6-1.6-2.2-2.4s-1-1.9-1.3-2.9C120.3,266.4,120.1,265.2,120.3,264z"/>
	</g>
	<g>
		<path class="st13" d="M182.3,267.2c0.5,0.8,0.6,1.6,0.6,2.3s-0.2,1.6-0.6,2.2c-0.3,0.7-0.8,1.4-1.5,1.9c-0.6,0.5-1.4,0.9-2.3,0.9
			c0.1-0.9,0.3-1.6,0.5-2.2c0.2-0.6,0.4-1.2,0.7-1.8c0.3-0.6,0.6-1.1,1-1.7C181.2,268.3,181.7,267.7,182.3,267.2z"/>
	</g>
	<g>
		<path class="st1" d="M139.7,252.2c1.8,1.5,3.7,2.4,5.7,3.2c2.1,0.7,4.1,1,6.3,0.9c2.1-0.1,4.1-0.7,6.1-1.7c2-1,3.7-2.2,5.3-3.9
			c-0.9,2.1-2.5,3.9-4.5,5.2c-2,1.4-4.3,2.2-6.6,2.2c-2.4,0.1-4.8-0.3-6.9-1.4C142.7,255.7,140.9,254.2,139.7,252.2z"/>
	</g>
	<path class="st18" d="M131.5,264c0.9,0.7,2.2,1.2,3,0.6c0.7-0.4,0.9-1.3,0.9-2c0-1.9-1.2-3.5-2.3-5c-0.7-0.9-1.4-1.7-2.2-2.3
		c-0.9-0.6-2.1-0.9-3-0.6C123.4,256.3,129.7,262.8,131.5,264z"/>
	<path class="st18" d="M138.2,273.3c0.6,0.2,1.4,0.2,1.9-0.2c0.6-0.5,0.6-1.6,0.2-2.2c-0.7-1.4-2.2-2.2-3.8-2.1
		C133.4,269,136.9,272.9,138.2,273.3z"/>
</g>
<g id="Слой_8">
	<polygon class="st0" points="151.7,94.6 137.9,78.9 116,78.9 116,15.8 186.7,15.8 186.7,78.7 164.8,78.7 	"/>
	<polygon class="st19" points="152,94.2 138.2,78.4 116.3,78.4 116.3,15.4 187.1,15.4 187.1,78.3 165.2,78.3 	"/>
	<g>
		<g>
			<path d="M122.6,21c1-0.1,2.2-0.2,3.4-0.2c2.3,0,4,0.5,5.1,1.4c1.1,0.9,1.8,2.2,1.8,3.9c0,1.8-0.6,3.2-1.8,4.3
				c-1.2,1.1-3.1,1.6-5.6,1.6c-1.2,0-2.2,0-2.9-0.1V21z M124.3,30.7c0.4,0.1,1,0.1,1.7,0.1c3.4,0,5.3-1.7,5.3-4.7
				c0-2.6-1.7-4.2-5.1-4.2c-0.9,0-1.5,0.1-1.9,0.2V30.7z"/>
			<path d="M125.5,32.3c-1.1,0-2.1,0-2.9-0.1h-0.2V20.7h0.2c1.2-0.2,2.3-0.2,3.4-0.2c2.3,0,4.1,0.5,5.3,1.5c1.3,1,1.9,2.4,1.9,4.2
				c0,1.9-0.7,3.4-1.9,4.5C130,31.7,128.1,32.3,125.5,32.3z M122.9,31.6c0.8,0.1,1.7,0.1,2.6,0.1c2.3,0,4.2-0.6,5.4-1.6
				c1.1-1,1.7-2.3,1.7-4.1c0-1.7-0.6-2.8-1.7-3.7c-1.1-0.9-2.6-1.3-4.9-1.3c-1.1,0-2.2,0.1-3.1,0.2V31.6z M125.8,31.1
				c-0.8,0-1.3,0-1.7-0.1H124v-9.2h0.2c0.4-0.1,1-0.2,2-0.2c1.9,0,3.2,0.5,4.2,1.4c0.8,0.8,1.2,1.9,1.2,3.1
				C131.5,29.3,129.4,31.1,125.8,31.1z M124.5,30.5c0.4,0,1,0.1,1.4,0.1c3.2,0,5.1-1.6,5.1-4.4c0-1.2-0.3-2.1-1-2.7
				c-0.8-0.8-2.1-1.3-3.8-1.3c-0.8,0-1.3,0.1-1.7,0.1V30.5z"/>
		</g>
		<g>
			<path d="M145.7,26.2c0,3.8-2.6,5.8-5.8,5.8c-3.3,0-5.6-2.2-5.6-5.6c0-3.5,2.4-5.8,5.8-5.8C143.4,20.6,145.7,23,145.7,26.2z
				 M136,26.4c0,2.3,1.5,4.5,4,4.5c2.5,0,4-2.1,4-4.6c0-2.2-1.3-4.5-4-4.5C137.3,21.8,136,24,136,26.4z"/>
			<path d="M139.8,32.4c-3.4,0-5.9-2.4-5.9-5.9c0-3.5,2.5-6.1,6.1-6.1c3.5,0,5.9,2.3,5.9,5.9C146,29.9,143.5,32.4,139.8,32.4z
				 M140,20.9c-3.2,0-5.6,2.2-5.6,5.5s2.2,5.3,5.4,5.3c3.3,0,5.6-2.2,5.6-5.6C145.4,23.1,143.2,20.9,140,20.9z M139.9,31.2
				c-2.8,0-4.3-2.3-4.3-4.7c0-2.4,1.4-4.9,4.3-4.9c2.8,0,4.3,2.3,4.3,4.8C144.2,29.1,142.5,31.2,139.9,31.2z M140,22.1
				c-2.5,0-3.7,2.2-3.7,4.3c0,2.1,1.2,4.2,3.7,4.2c2.5,0,3.7-2.2,3.7-4.3C143.7,24.2,142.5,22.1,140,22.1z"/>
		</g>
		<g>
			<path d="M153.6,31.9v-4.7l-3.9-6.4h1.9l1.8,3c0.5,0.9,0.9,1.5,1.3,2.2l0,0c0.4-0.7,0.8-1.5,1.3-2.2l1.8-3h1.9l-4.2,6.4v4.7H153.6
				z"/>
			<path d="M155.6,32.2h-2.2v-4.9l-4.2-6.6h2.4l1.9,3.1c0.4,0.7,0.8,1.3,1.1,1.9c0.3-0.5,0.6-1,0.9-1.6l2.1-3.5h2.4l-4.4,6.6V32.2z
				 M153.9,31.6h1.1v-4.5l4-6h-1.2l-1.9,3.2c-0.4,0.7-0.8,1.4-1.1,2l-0.1,0.2h-0.3l-0.1-0.2c-0.4-0.7-0.7-1.4-1.3-2.2l-1.7-2.9h-1.2
				l3.7,6L153.9,31.6L153.9,31.6z"/>
		</g>
		<g>
			<path d="M170.9,26.2c0,3.8-2.6,5.8-5.8,5.8c-3.3,0-5.6-2.2-5.6-5.6c0-3.5,2.4-5.8,5.8-5.8C168.7,20.6,170.9,23,170.9,26.2z
				 M161.2,26.4c0,2.3,1.5,4.5,4,4.5c2.5,0,4-2.1,4-4.6c0-2.2-1.3-4.5-4-4.5S161.2,24,161.2,26.4z"/>
			<path d="M165,32.4c-3.4,0-5.9-2.4-5.9-5.9c0-3.5,2.5-6.1,6.1-6.1c3.5,0,5.9,2.3,5.9,5.9C171.2,29.9,168.7,32.4,165,32.4z
				 M165.2,20.9c-3.2,0-5.6,2.2-5.6,5.5s2.2,5.3,5.4,5.3c3.3,0,5.6-2.2,5.6-5.6C170.6,23.1,168.5,20.9,165.2,20.9z M165.1,31.2
				c-2.8,0-4.3-2.3-4.3-4.7c0-2.4,1.4-4.9,4.3-4.9c2.8,0,4.3,2.3,4.3,4.8C169.4,29.1,167.7,31.2,165.1,31.2z M165.2,22.1
				c-2.5,0-3.7,2.2-3.7,4.3c0,2.1,1.2,4.2,3.7,4.2c2.5,0,3.7-2.2,3.7-4.3C168.9,24.2,167.8,22.1,165.2,22.1z"/>
		</g>
		<g>
			<path d="M174.6,20.8v6.5c0,2.4,1.3,3.5,2.9,3.5c1.9,0,3-1.1,3-3.5v-6.5h1.7v6.5c0,3.4-2.1,4.8-4.7,4.8c-2.5,0-4.5-1.3-4.5-4.7
				v-6.5L174.6,20.8L174.6,20.8z"/>
			<path d="M177.4,32.4c-3,0-4.8-1.8-4.8-5v-6.7h2.2v6.7c0,2.1,1,3.2,2.6,3.2c1.9,0,2.7-1.1,2.7-3.2v-6.7h2.2v6.6
				C182.4,30.5,180.7,32.4,177.4,32.4z M173.2,21.1v6.3c0,3.7,2.2,4.4,4.2,4.4c2.8,0,4.5-1.6,4.5-4.5v-6.2h-1.1v6.3
				c0,2.4-1.2,3.8-3.3,3.8c-2.1,0-3.2-1.4-3.2-3.8v-6.3H173.2z"/>
		</g>
	</g>
	<g>
		<g>
			<path d="M126.8,45.2l-2.9-10.5h1.6l1.4,5.3c0.4,1.3,0.7,2.6,0.9,3.6l0,0c0.2-1.1,0.6-2.2,1-3.6l1.6-5.3h1.6l1.5,5.3
				c0.3,1.3,0.7,2.4,0.8,3.6l0,0c0.2-1.2,0.6-2.3,1-3.6l1.6-5.3h1.6l-3.3,10.5h-1.6l-1.5-5.5c-0.4-1.4-0.6-2.3-0.8-3.4l0,0
				c-0.2,1.1-0.5,2.1-0.9,3.4l-1.7,5.5H126.8z"/>
			<path d="M135,45.4h-2l-1.6-5.7c-0.2-0.8-0.4-1.6-0.6-2.2c-0.2,0.7-0.4,1.5-0.7,2.2l-1.8,5.7h-2l-3.1-10.9h2.2L127,40
				c0.2,0.9,0.5,1.8,0.7,2.5c0.2-0.8,0.5-1.8,0.7-2.6l1.7-5.5h2l1.5,5.5c0.2,0.8,0.4,1.7,0.6,2.5c0.2-0.8,0.4-1.6,0.6-2.3l0.1-0.2
				l1.6-5.5h2.1L135,45.4z M133.5,45h1.2l3.1-10h-1l-1.6,5.3c-0.4,1.3-0.7,2.3-0.9,3.4v0.2h-0.4l-0.1-0.2c-0.2-1.1-0.5-2.3-0.8-3.5
				l-1.4-5.1h-1.2l-1.5,5.1c-0.4,1.3-0.8,2.5-1,3.6V44h-0.4l-0.1-0.2c-0.2-1-0.5-2.3-0.9-3.6l-1.4-5.1h-1.1l2.8,10h1.2l1.7-5.3
				c0.4-1.3,0.7-2.2,0.9-3.4v-0.2h0.4l0.1,0.2c0.2,1.1,0.4,2.2,0.8,3.4L133.5,45z"/>
		</g>
		<g>
			<path d="M140.5,41.8l-1.2,3.3h-1.6l4-10.5h1.9l4,10.5H146l-1.3-3.3H140.5z M144.4,40.9l-1.2-3c-0.3-0.7-0.4-1.3-0.6-2l0,0
				c-0.2,0.6-0.4,1.3-0.6,1.9l-1.2,3L144.4,40.9L144.4,40.9z"/>
			<path d="M147.9,45.4h-2.2l-1.3-3.3h-3.8l-1.2,3.3h-2.2l4.2-10.9h2.2L147.9,45.4z M146.2,45h1.1l-3.8-10H142l-3.8,10h1l1.2-3.3
				h4.5L146.2,45z M144.8,41.1h-4.3l1.3-3.4c0.2-0.6,0.4-1.2,0.6-1.9l0.1-0.2h0.4l0.1,0.3c0.2,0.6,0.3,1.2,0.6,1.8L144.8,41.1z
				 M141.2,40.6h2.8l-1-2.6c-0.2-0.4-0.3-0.8-0.4-1.2c-0.1,0.4-0.2,0.8-0.4,1.2L141.2,40.6z"/>
		</g>
		<g>
			<path d="M149.3,45.2V34.7h1.7l3.8,5.3c0.9,1.3,1.6,2.3,2.2,3.4l0,0c-0.1-1.4-0.2-2.6-0.2-4.3v-4.4h1.5v10.5h-1.6l-3.7-5.3
				c-0.8-1.2-1.6-2.3-2.2-3.5h-0.1c0.1,1.4,0.1,2.5,0.1,4.3v4.5H149.3z"/>
			<path d="M158.4,45.4h-2l-3.8-5.4c-0.7-1-1.3-1.9-1.8-2.6c0,1,0.1,2.1,0.1,3.3v4.7h-2v-11h2.1l3.8,5.4c0.6,0.9,1.2,1.7,1.6,2.4
				c-0.1-1.1-0.1-2.1-0.1-3.2v-4.6h2L158.4,45.4L158.4,45.4z M156.7,45h1.2V35H157v4.1c0,1.6,0,2.8,0.2,4.3v0.2l-0.4,0.2l-0.1-0.2
				c-0.6-1.1-1.3-2.2-2.1-3.4L151,35h-1.3v10h0.9v-4.2c0-1.8,0-3-0.1-4.3v-0.2l0.4-0.1l0.2,0.2c0.5,1,1.2,2.1,2.2,3.4L156.7,45z"/>
		</g>
		<g>
			<path d="M160.7,45.2V34.7h1.7l3.8,5.3c0.9,1.3,1.6,2.3,2.2,3.4l0,0c-0.1-1.4-0.2-2.6-0.2-4.3v-4.4h1.5v10.5h-1.6l-3.7-5.3
				c-0.8-1.2-1.6-2.3-2.2-3.5h-0.1c0.1,1.4,0.1,2.5,0.1,4.3v4.5H160.7z"/>
			<path d="M169.8,45.4h-2l-3.8-5.4c-0.7-1-1.3-1.9-1.8-2.6c0,1,0.1,2.1,0.1,3.3v4.7h-2v-11h2.1l3.8,5.4c0.6,0.9,1.2,1.7,1.6,2.4
				c-0.1-1.1-0.1-2.1-0.1-3.2v-4.6h2L169.8,45.4L169.8,45.4z M168.2,45h1.2V35h-0.9v4.1c0,1.6,0,2.8,0.2,4.3v0.2l-0.4,0.2l-0.1-0.2
				c-0.6-1.1-1.3-2.2-2.1-3.4l-3.7-5.2h-1.3v10h0.9v-4.2c0-1.8,0-3-0.1-4.3v-0.2l0.4-0.1l0.2,0.2c0.5,1,1.2,2.1,2.2,3.4L168.2,45z"
				/>
		</g>
		<g>
			<path d="M174.1,41.8l-1.2,3.3h-1.6l4-10.5h1.9l4,10.5h-1.7l-1.3-3.3H174.1z M178,40.9l-1.2-3c-0.3-0.7-0.4-1.3-0.6-2l0,0
				c-0.2,0.6-0.4,1.3-0.6,1.9l-1.2,3L178,40.9L178,40.9z"/>
			<path d="M181.6,45.4h-2.2l-1.3-3.3h-3.8l-1.2,3.3H171l4.2-10.9h2.2l0.1,0.2L181.6,45.4z M179.8,45h1.1l-3.8-10h-1.5l-3.8,10h1
				l1.2-3.3h4.5L179.8,45z M178.4,41.1h-4.3l1.3-3.4c0.2-0.6,0.4-1.2,0.6-1.9l0.1-0.2h0.4l0.1,0.3c0.2,0.6,0.3,1.2,0.6,1.8
				L178.4,41.1z M174.8,40.6h2.8l-1-2.6c-0.2-0.4-0.3-0.8-0.4-1.2c-0.1,0.4-0.2,0.8-0.4,1.2L174.8,40.6z"/>
		</g>
	</g>
	<g>
		<g>
			<path d="M123.7,49.4c0.8-0.1,1.9-0.2,2.9-0.2c2,0,3.3,0.4,4.3,1.2s1.5,2,1.5,3.5c0,1.6-0.5,2.8-1.6,3.8c-1,0.9-2.6,1.4-4.7,1.4
				c-1,0-1.8,0-2.4-0.1V49.4z M125.1,57.9c0.4,0.1,0.9,0.1,1.4,0.1c2.9,0,4.5-1.5,4.5-4.1c0-2.2-1.4-3.7-4.3-3.7
				c-0.7,0-1.3,0.1-1.6,0.1V57.9z"/>
			<path d="M126.1,59.2c-0.9,0-1.8,0-2.5-0.1h-0.2V49.1h0.2c1-0.1,2-0.2,2.9-0.2c2,0,3.4,0.4,4.4,1.3c1.1,0.9,1.6,2.2,1.6,3.6
				c0,1.7-0.6,3-1.6,3.9C129.9,58.7,128.3,59.2,126.1,59.2z M123.9,58.6c0.7,0.1,1.5,0.1,2.2,0.1c2,0,3.5-0.5,4.5-1.4
				c1-0.9,1.5-2.1,1.5-3.6c0-1.5-0.5-2.5-1.4-3.3c-0.9-0.8-2.2-1.2-4.1-1.2c-0.9,0-1.8,0.1-2.6,0.2L123.9,58.6
				C124,58.6,123.9,58.6,123.9,58.6z M126.4,58.3c-0.7,0-1.1,0-1.4-0.1h-0.2v-8h0.2c0.3-0.1,0.9-0.1,1.7-0.1c1.6,0,2.7,0.4,3.5,1.2
				c0.7,0.7,1,1.7,1,2.8C131.1,56.6,129.4,58.3,126.4,58.3z M125.2,57.7c0.4,0,0.8,0,1.2,0c2.7,0,4.3-1.4,4.3-3.9
				c0-1.1-0.3-1.9-0.9-2.4c-0.7-0.7-1.8-1.1-3.1-1.1c-0.6,0-1.1,0-1.4,0.1L125.2,57.7L125.2,57.7z"/>
		</g>
		<g>
			<path d="M139.5,54.3h-4.1v3.5h4.6v1.1h-6v-9.7h5.7v1h-4.3v3h4.1V54.3z"/>
			<path d="M140.3,59.1h-6.5V49h6.2v1.6h-4.3v2.6h4.1v1.5h-4.1v3h4.6V59.1z M134.3,58.6h5.5v-0.6h-4.6v-3.9h4.1v-0.6h-4.1V50h4.3
				v-0.6h-5.2V58.6z"/>
		</g>
		<g>
			<path d="M144.2,58.9l-3.4-9.7h1.5l1.7,4.8c0.5,1.3,0.9,2.4,1.2,3.6l0,0c0.3-1.1,0.8-2.3,1.2-3.6l1.8-4.8h1.5l-3.8,9.7H144.2z"/>
			<path d="M145.9,59.1H144L140.4,49h2l1.7,5c0.4,1.1,0.7,2.1,0.9,2.8c0.3-1,0.7-2,1-2.8l1.9-5h2L145.9,59.1z M144.4,58.6h1.2
				l3.6-9.2h-1l-1.8,4.6c-0.4,1.2-0.9,2.4-1.2,3.6v0.2h-0.4l-0.1-0.2c-0.3-1.1-0.6-2.2-1.1-3.6l-1.6-4.6h-1L144.4,58.6z"/>
		</g>
		<g>
			<path d="M156.1,54.3H152v3.5h4.6v1.1h-6v-9.7h5.7v1H152v3h4.1V54.3z"/>
			<path d="M156.8,59.1h-6.5V49h6.2v1.6h-4.3v2.6h4.1v1.5h-4.1v3h4.6V59.1z M150.9,58.6h5.5v-0.6h-4.6v-3.9h4.1v-0.6h-4.1V50h4.3
				v-0.6h-5.2L150.9,58.6L150.9,58.6z"/>
		</g>
		<g>
			<path d="M158.4,49.2h1.4v8.7h4.5v1.1h-5.9V49.2z"/>
			<path d="M164.4,59.1h-6.4V49h1.9v8.7h4.5V59.1z M158.6,58.6h5.4v-0.6h-4.5v-8.7h-0.9V58.6z"/>
		</g>
		<g>
			<path d="M174.1,54c0,3.3-2.2,5.1-4.9,5.1c-2.7,0-4.7-2-4.7-4.9c0-3.1,2.1-5.1,4.9-5.1S174.1,51,174.1,54z M166,54.1
				c0,2.1,1.2,3.9,3.3,3.9c2.2,0,3.4-1.9,3.4-4c0-2-1.1-3.9-3.3-3.9C167.1,50,166,52,166,54.1z"/>
			<path d="M169.2,59.3c-2.9,0-5-2.2-5-5.2c0-3.1,2.2-5.4,5.2-5.4c2.9,0,5,2.1,5,5.2C174.4,57.2,172.4,59.3,169.2,59.3z M169.4,49.3
				c-2.7,0-4.7,2-4.7,4.9c0,2.8,1.9,4.7,4.5,4.7c2.8,0,4.7-2,4.7-4.9C173.9,51.1,172.1,49.3,169.4,49.3z M169.3,58.3
				c-2.3,0-3.6-2.1-3.6-4.2s1.1-4.3,3.6-4.3c2.3,0,3.6,2.2,3.6,4.2C173,56.5,171.5,58.3,169.3,58.3z M169.3,50.2
				c-2.2,0-3.1,2-3.1,3.8c0,1.8,1,3.7,3.1,3.7c2.2,0,3.1-2,3.1-3.8C172.5,52.2,171.5,50.2,169.3,50.2z"/>
		</g>
		<g>
			<path d="M175.9,49.3c0.7-0.1,1.6-0.2,2.6-0.2c1.4,0,2.3,0.3,2.9,0.8c0.6,0.5,0.9,1.2,0.9,2.1c0,0.9-0.3,1.6-0.8,2.1
				c-0.7,0.7-1.9,1.1-3.2,1.1c-0.4,0-0.8,0-1.1-0.1v3.9h-1.4L175.9,49.3L175.9,49.3z M177.3,54c0.3,0.1,0.7,0.1,1.2,0.1
				c1.7,0,2.6-0.8,2.6-2.1s-1-1.9-2.4-1.9c-0.6,0-1.1,0-1.3,0.1L177.3,54L177.3,54z"/>
			<path d="M177.5,59.1h-1.9V49.1h0.2c0.8-0.1,1.8-0.2,2.6-0.2c1.4,0,2.4,0.3,3.1,0.9c0.7,0.5,1,1.3,1,2.2s-0.3,1.7-0.9,2.2
				c-0.8,0.7-2,1.2-3.4,1.2c-0.3,0-0.6,0-0.9,0L177.5,59.1L177.5,59.1z M176.2,58.6h0.9v-3.9l0.3,0.1c0.3,0.1,0.7,0.1,1.1,0.1
				c1.3,0,2.4-0.4,3-1c0.5-0.5,0.8-1.1,0.8-1.9c0-0.8-0.3-1.4-0.9-1.9s-1.6-0.8-2.8-0.8c-0.9,0-1.7,0.1-2.3,0.2L176.2,58.6
				L176.2,58.6z M178.4,54.3c-0.5,0-0.9,0-1.2-0.1h-0.2v-4.1h0.2c0.3-0.1,0.8-0.1,1.4-0.1c1.8,0,2.7,0.8,2.7,2.2
				C181.3,53.5,180.2,54.3,178.4,54.3z M177.5,53.8c0.2,0,0.5,0.1,0.9,0.1c0.9,0,2.4-0.2,2.4-1.9c0-1.5-1.4-1.7-2.2-1.7
				c-0.5,0-0.8,0-1.1,0.1L177.5,53.8L177.5,53.8z"/>
		</g>
	</g>
	<g>
		<g>
			<path d="M125.5,69.6l-1.2,3.2h-1.5l3.8-10.3h1.8l3.8,10.3h-1.6l-1.2-3.2H125.5z M129.3,68.5l-1.1-2.9c-0.3-0.7-0.4-1.3-0.6-1.9
				l0,0c-0.2,0.6-0.4,1.3-0.6,1.9l-1.1,2.9H129.3z"/>
			<path d="M132.7,73.1h-2.1l-1.2-3.2h-3.6l-1.2,3.2h-2.1l4-10.8h2.2L132.7,73.1z M131,72.5h1l-3.6-9.8H127l-3.6,9.8h1l1.2-3.2h4.4
				L131,72.5z M129.6,68.8h-4.1l1.3-3.3c0.2-0.5,0.4-1.1,0.6-1.9l0.1-0.2h0.4l0.1,0.3c0.2,0.6,0.3,1.2,0.6,1.8L129.6,68.8z
				 M126.2,68.3h2.6l-1-2.6c-0.1-0.4-0.3-0.8-0.4-1.1c-0.1,0.4-0.2,0.8-0.4,1.1L126.2,68.3z"/>
		</g>
		<g>
			<path d="M134,72.8V62.6h1.6l3.6,5.2c0.9,1.2,1.5,2.2,2.1,3.3l0,0c-0.1-1.4-0.2-2.6-0.2-4.2v-4.3h1.4v10.3H141l-3.6-5.2
				c-0.8-1.2-1.6-2.3-2.2-3.4h-0.1c0.1,1.3,0.1,2.5,0.1,4.2v4.4H134z"/>
			<path d="M142.7,73.1h-1.9l-3.6-5.3c-0.7-1-1.2-1.9-1.7-2.5c0,1,0.1,2,0.1,3.2v4.6h-1.9V62.4h2l3.7,5.3c0.6,0.8,1.1,1.7,1.5,2.3
				c-0.1-1-0.1-2.1-0.1-3.1v-4.6h1.9V73.1z M141.2,72.5h1.1v-9.8h-0.9v4.1c0,1.5,0,2.7,0.2,4.2v0.2l-0.4,0.2l-0.1-0.2
				c-0.6-1.1-1.2-2.2-2.1-3.3l-3.5-5.1h-1.2v9.8h0.9v-4.1c0-1.8,0-2.9-0.1-4.2v-0.2l0.4-0.1l0.1,0.2c0.5,1,1.2,2.1,2.1,3.4
				L141.2,72.5z"/>
		</g>
		<g>
			<path d="M150.4,69.6l-1.2,3.2h-1.5l3.8-10.3h1.8l3.8,10.3h-1.5l-1.2-3.2H150.4z M154.1,68.5l-1.1-2.9c-0.3-0.7-0.4-1.3-0.6-1.9
				l0,0c-0.2,0.6-0.4,1.3-0.6,1.9l-1.1,2.9H154.1z"/>
			<path d="M157.5,73.1h-2.1l-1.2-3.2h-3.6l-1.2,3.2h-2.1l4-10.8h2.2L157.5,73.1z M155.7,72.5h1l-3.6-9.8h-1.4l-3.6,9.8h1l1.2-3.2
				h4.4L155.7,72.5z M154.5,68.8h-4.1l1.3-3.3c0.2-0.6,0.4-1.2,0.6-1.9l0.1-0.2h0.4l0.1,0.3c0.2,0.6,0.3,1.1,0.6,1.8L154.5,68.8z
				 M151.1,68.3h2.6l-1-2.6c-0.1-0.4-0.3-0.8-0.4-1.1c-0.1,0.4-0.2,0.8-0.4,1.1L151.1,68.3z"/>
		</g>
		<g>
			<path d="M158.8,62.7c0.7-0.1,1.7-0.2,2.8-0.2c1.5,0,2.5,0.3,3.1,0.9c0.6,0.5,1,1.3,1,2.2c0,1-0.3,1.7-0.9,2.2
				c-0.8,0.8-2.1,1.2-3.4,1.2c-0.4,0-0.9,0-1.2-0.1v4.1h-1.5V62.7z M160.2,67.6c0.3,0.1,0.7,0.1,1.2,0.1c1.8,0,2.8-0.8,2.8-2.2
				c0-1.4-1.1-2.1-2.6-2.1c-0.7,0-1.1,0-1.4,0.1V67.6z"/>
			<path d="M160.5,73.1h-2V62.5h0.2c0.9-0.1,1.9-0.2,2.8-0.2c1.5,0,2.5,0.3,3.3,0.9c0.7,0.6,1.1,1.4,1.1,2.3s-0.3,1.8-1,2.3
				c-0.8,0.8-2.1,1.2-3.6,1.2c-0.3,0-0.6,0-0.9,0V73.1z M159.1,72.5h1v-4.2l0.3,0.1c0.3,0.1,0.8,0.1,1.1,0.1c1.4,0,2.5-0.4,3.2-1.1
				c0.5-0.5,0.8-1.2,0.8-2.1c0-0.8-0.3-1.5-0.9-2c-0.7-0.5-1.7-0.8-3-0.8c-0.9,0-1.8,0.1-2.5,0.2L159.1,72.5L159.1,72.5z
				 M161.5,67.9c-0.6,0-1,0-1.3-0.1H160v-4.4h0.2c0.3-0.1,0.8-0.1,1.5-0.1c1.9,0,2.9,0.8,2.9,2.2C164.5,67.1,163.4,67.9,161.5,67.9z
				 M160.5,67.4c0.3,0,0.6,0.1,1,0.1c1,0,2.5-0.3,2.5-2c0-1.6-1.5-1.8-2.4-1.8c-0.5,0-0.9,0-1.1,0.1V67.4z"/>
		</g>
		<g>
			<path d="M167.8,62.7c0.7-0.1,1.7-0.2,2.8-0.2c1.5,0,2.5,0.3,3.1,0.9c0.6,0.5,1,1.3,1,2.2c0,1-0.3,1.7-0.9,2.2
				c-0.8,0.8-2.1,1.2-3.4,1.2c-0.4,0-0.9,0-1.2-0.1v4.1h-1.5V62.7z M169.2,67.6c0.3,0.1,0.7,0.1,1.2,0.1c1.8,0,2.8-0.8,2.8-2.2
				c0-1.4-1.1-2.1-2.6-2.1c-0.7,0-1.1,0-1.4,0.1V67.6z"/>
			<path d="M169.4,73.1h-2V62.5h0.2c0.9-0.1,1.9-0.2,2.8-0.2c1.5,0,2.5,0.3,3.3,0.9c0.7,0.6,1.1,1.4,1.1,2.3s-0.3,1.8-1,2.3
				c-0.8,0.8-2.1,1.2-3.6,1.2c-0.3,0-0.6,0-0.9,0V73.1z M168,72.5h1v-4.2l0.3,0.1c0.3,0.1,0.8,0.1,1.1,0.1c1.4,0,2.5-0.4,3.2-1.1
				c0.5-0.5,0.8-1.2,0.8-2.1c0-0.8-0.3-1.5-0.9-2c-0.7-0.5-1.7-0.8-3-0.8c-0.9,0-1.8,0.1-2.5,0.2L168,72.5L168,72.5z M170.4,67.9
				c-0.6,0-1,0-1.3-0.1h-0.2v-4.4h0.2c0.3-0.1,0.8-0.1,1.5-0.1c1.9,0,2.9,0.8,2.9,2.2C173.4,67.1,172.4,67.9,170.4,67.9z
				 M169.4,67.4c0.3,0,0.6,0.1,1,0.1c1,0,2.5-0.3,2.5-2c0-1.6-1.5-1.8-2.4-1.8c-0.5,0-0.9,0-1.1,0.1V67.4z"/>
		</g>
		<g>
			<path d="M177.7,69.9v-0.4c-0.1-0.8,0.2-1.8,1.1-2.6c0.8-0.8,1.2-1.4,1.2-2.1c0-0.8-0.5-1.3-1.6-1.3c-0.6,0-1.3,0.2-1.7,0.5
				l-0.4-1c0.6-0.4,1.5-0.6,2.3-0.6c2,0,2.8,1.1,2.8,2.2c0,1.1-0.7,1.8-1.5,2.6c-0.8,0.8-1,1.5-1,2.2V70L177.7,69.9L177.7,69.9z
				 M177.4,72c0-0.6,0.4-1,1-1c0.6,0,1,0.4,1,1c0,0.5-0.4,1-1,1C177.7,73,177.4,72.5,177.4,72z"/>
			<path d="M178.3,73.2c-0.7,0-1.3-0.5-1.3-1.2c0-0.7,0.5-1.2,1.3-1.2c0.7,0,1.3,0.5,1.3,1.2C179.6,72.7,179.1,73.2,178.3,73.2z
				 M178.3,71.4c-0.5,0-0.8,0.3-0.8,0.7s0.3,0.7,0.8,0.7c0.5,0,0.8-0.3,0.8-0.7C179.1,71.6,178.8,71.4,178.3,71.4z M179.3,70.2h-1.8
				l-0.1-0.6c-0.1-1,0.3-2,1.1-2.8c0.7-0.8,1.1-1.3,1.1-2c0-0.9-0.9-1.1-1.4-1.1c-0.6,0-1.2,0.2-1.6,0.4l-0.3,0.2l-0.6-1.5l0.2-0.1
				c0.6-0.4,1.6-0.7,2.5-0.7c2.2,0,3,1.3,3,2.4c0,1.1-0.7,1.9-1.5,2.8c-0.7,0.7-1,1.4-0.9,2.1L179.3,70.2z M177.9,69.7h0.8v-0.1
				c-0.1-0.9,0.3-1.6,1-2.4c0.8-0.9,1.4-1.6,1.4-2.4c0-0.9-0.7-2-2.5-2c-0.8,0-1.6,0.2-2.1,0.5l0.2,0.5c0.5-0.2,1.1-0.4,1.6-0.4
				c1.2,0,1.9,0.6,1.9,1.6c0,0.8-0.5,1.4-1.3,2.2C178,67.9,177.7,68.8,177.9,69.7L177.9,69.7z"/>
		</g>
	</g>
</g>
</svg>
