<?xml version="1.0" encoding="utf-8"?>
<!-- Generator: Adobe Illustrator 23.0.5, SVG Export Plug-In . SVG Version: 6.00 Build 0)  -->
<svg version="1.1" id="Layer_1" xmlns="http://www.w3.org/2000/svg" xmlns:xlink="http://www.w3.org/1999/xlink" x="0px" y="0px"
	 viewBox="0 0 410 404" style="enable-background:new 0 0 410 404;" xml:space="preserve">
<style type="text/css">
	.st0{fill:#FEFEFE;}
	.st1{fill:#7F7F7F;}
	.st2{fill:#B0D9EC;}
	.st3{fill:#D4C8B7;}
	.st4{fill:#020101;}
	.st5{fill:#D3C7B6;}
	.st6{fill:#ADD5E8;}
	.st7{fill:#A3C8DA;}
	.st8{fill:#706A61;}
	.st9{fill:#5A554E;}
	.st10{fill:#010100;}
	.st11{fill:#010101;}
	.st12{fill:#020202;}
	.st13{fill:#CFEAC0;}
	.st14{fill:#622726;}
	.st15{fill:#D7D79C;}
	.st16{fill:#D1D198;}
	.st17{fill:#D3D399;}
	.st18{fill:#D8D89C;}
	.st19{fill:#FDFDFD;}
	.st20{fill:#FBFBFB;}
	.st21{fill:#ACACAC;}
	.st22{fill:#C8E3BA;}
	.st23{fill:#030303;}
</style>
<path d="M198.3,400.1c-1-2-2.9-1.1-4.4-1.4c-22.1-3.8-39.5-15.2-52.6-33.1c-2-2.8-3.8-3.5-6.9-2.3c-4.4,1.7-9.1,2.2-13.7,2.6
	c-7.2,0.7-11-3.7-9.3-10.8c0.5-2.3,1.3-4.5,1.8-6.7c0.6-2.2,1.1-4.5,1.8-7.4c-9.5,0-18.8,0.1-28.1,0c-9.9-0.1-12.3-4.4-9-13.8
	c3.4-9.5,8.9-18.2,10.6-28.4c0.5-2.9-0.2-4.1-2.6-5.5c-11.5-6.3-23.7-10.4-36.3-13.5c-4.2-1-7.3-3-7.5-7.9c-0.1-3.5,2-5.5,4.4-7.4
	c9.5-7.8,19-15.7,28.6-23.3c3.1-2.5,2.7-3.4-0.5-5.2c-11.9-6.7-23.7-13.4-36.3-18.6c-3.5-1.4-5.6-3.8-5.8-7.4
	c-0.2-3.4,1.8-5.8,4.7-7.7c13.3-8.8,28.3-13.9,42.9-19.8c9.1-3.7,9.1-3.7,5.8-13c-8.1-22.9-18.1-44.9-28.9-66.6
	c-2-4-3.3-7.8,0.1-11.5c3.3-3.5,7.2-2.4,11.1-0.9c22.6,8.9,46.3,13.3,70,17.8c6.8,1.3,6.8,1.2,8.4-5.6c2.7-11.9,3.2-24.1,3.2-36.2
	c-0.1-18.4,0.4-36.6,5.5-54.4c1.2-4.1,2.6-7.7,7.5-8c4.8-0.4,7,2.6,8.8,6.6c7.1,15.9,18.5,28.7,30.1,41.4
	c8.8,9.5,17.3,19.3,22.8,30.1c6.6-6.2,13.3-12.4,19.9-18.6c14.3-13.5,29.7-25.7,45.1-37.9c3-2.4,6-3.7,9.6-2.2
	c4,1.7,4.6,5.3,4.7,9.1c0.4,14.6-1.7,28.9-3.9,43.2c-2.1,13.5-4.1,27-6.4,40.4c-0.6,3.7,0.4,5,4.2,5c15.7,0.3,30.6-4,45.4-8.3
	c7.7-2.2,15.3-4.3,23.4-4.8c4.8-0.3,8.4,1.1,10.8,5.2c0,1.7,0,3.3,0,5c-0.9,1.8-1.3,3.7-2.9,5.1c-13.4,12.4-23,27.9-33.7,42.5
	c-5.2,7.1-10.4,14.2-16.1,21c-3.1,3.8-3.1,4,1.4,6.3c12.9,6.4,26.6,9.3,41,8.8c6.3-0.2,8,0.8,10.2,6.4c0,1.7,0,3.3,0,5
	c-1,4.2-4.5,5.8-7.8,7.8c-15.6,9.3-30.9,19.1-43.8,32.1c-4.5,4.6-4.5,5.1,0.4,9.3c8,6.8,15.9,13.7,25.1,19c3.9,2.3,6,5.7,5.3,10.4
	c-0.6,4.6-4,6.1-7.8,7.5c-7.7,2.8-15.6,4.9-23.4,7.4c-3.8,1.2-4.9,3.1-3.9,7.1c2.2,8.6,4.7,17,7.9,25.3c2.6,6.7,0.6,11.5-5.1,13.6
	c-1.8,0.7-3.6,0.5-5.4,0.2c-7.1-0.9-14.1-2.7-21-4.6c-3-0.8-3.9-0.1-3.4,3c0.4,2.5,0.2,5,0.1,7.5c-0.2,7-5.4,11.5-12,9.2
	c-5.6-1.9-8.5-0.4-12.1,4c-12.1,15-27.4,25.1-47,27.6c-2.7,0.3-5.3,0.1-8,0.2c-5,0.3-10.1-0.6-15.1,0.5
	C199.7,400.1,199,400.1,198.3,400.1z"/>
<path class="st0" d="M377.3,208.1c-2.4-4.2-5.8-5.6-10.7-5.3c-16.9,1-32.4-3.5-47.2-12.1c13.5-14.9,24.3-31.6,36-47.6
	c6.6-9,14.1-17.1,21.9-25C377.3,148.1,377.3,178.1,377.3,208.1z"/>
<path class="st1" d="M216.4,399.3c-0.1,0.3-0.1,0.6-0.1,0.9c-5.3,0-10.7,0-16,0C205.6,398,211.1,399.6,216.4,399.3z"/>
<path class="st2" d="M127.9,330.1c-11.4,0-22.8-0.1-34.3,0.1c-3.6,0.1-4.8-0.6-3.2-4.3c3.8-8.8,8.1-17.5,9.6-27.2
	c1.4-9.3,1.7-9.1-6.3-13.8c-10.4-6.1-21.5-10.4-33.1-13.7c-1-0.3-2-0.3-2.8-1.5c9.4-7.8,18.9-15.6,28.3-23.5c1.9-1.6,3.8-3.3,5.6-5
	c4.6-4.3,4.5-5.7-0.8-8.8c-13.2-7.7-26.4-15.5-40.2-22c-0.9-0.4-2-0.5-2.5-1.9c8.5-5.2,17.8-8.6,26.9-12.4c7.4-3,14.7-6.3,22.1-9.1
	c4.3-1.6,4.8-4,3.6-8.1c-7.4-23.8-17.2-46.7-28-69.2c-0.8-1.8-1.7-3.5-2.5-5.3c2-0.7,3.5-0.3,5.1,0.3c23.5,7.6,47.8,11.7,71.9,16.5
	c3.9,0.8,5.7-0.5,6.9-4.2c5-15.9,6.3-32.3,6.4-48.8c0.1-14-0.3-28,2.5-41.8c0.3-1.4,0.2-2.9,1.7-4.3c9.8,18.6,25.1,32.7,38.3,48.5
	c6.7,8,12.3,16.5,15.5,26.5c0.6,1.9,0.8,4.2,3.2,4.7c2.7,0.6,3.8-1.7,5.1-3.3c18.4-23.6,41.4-42.2,65.9-61.6
	c-0.4,6.2-0.4,11.2-1.1,16.1c-2.9,20.3-6,40.5-9,60.7c-0.5,3.1-0.8,6.3-1.2,9.4c-0.8,6.4-0.3,7,6.2,8c13.2,2,26.2,0.7,39.1-2.5
	c10.6-2.6,21.1-5.7,32.8-8.9c-4.3,5.5-8,10-11.5,14.7c-10.2,13.6-19.4,27.9-30.2,41c-3.5,4.2-7.3,8.2-11.1,12.1
	c-4.1,4.3-4.1,5.5,0.7,8.8c13.3,9.3,28,15.2,44.2,17.1c1.3,0.2,2.7-0.1,3.9,1c-7.2,5.1-14.5,9.9-21.5,15.1
	c-9.7,7.2-18.5,15.2-26.4,24.3c-3.1,3.7-3.3,6.1,0.6,9.4c10.1,8.6,19.8,17.7,31.7,25.7c-10.8,3.5-20.9,6.7-31.6,10.1
	c3.9-14.5-0.9-24.7-13.8-30.9c-2.1-1-1.5-2.6-1.5-4.2c1.1-29.5,0.3-58.9-6.8-87.8c-6.1-24.9-18.4-45.2-43.3-54.9
	c-39.5-15.4-99.6-6.3-115.5,59.6c-6.1,25-7.2,50.7-7.3,76.4c0,5.3-1,8.8-6.1,11.4c-7.5,3.8-12.6,9.8-11.6,19.2
	c1.4,12.1,6.6,22.2,16.9,28.7C125.1,320,127.3,324.5,127.9,330.1z"/>
<path class="st3" d="M280.2,178.3c9.2,39.4,7.9,79,3.5,118.8c-1.1,9.7-2.7,19.4-4.4,29c-3.2-0.6-2-3.3-2.2-5.1
	c-0.4-4.5-2-8.4-5.4-11.4c-1-0.9-2.2-1.9-3.5-0.8c-1.4,1.2-0.2,2.4,0.5,3.5c8.4,12.7,2.7,27.5-12.1,31.2c-1.1,0.3-2.7,0.3-2.6,1.7
	c0.1,1.7,1.9,1.6,3.2,1.7c5,0.3,8.9-1.9,12.4-5.3c1.3-1.2,2.1-3.7,4.8-2.5c-8.5,26.4-29.3,46.2-56.5,49.1
	c-32,3.5-55.9-9.4-72.7-36.4c-10.5-16.9-14.8-35.7-16.7-55.3c-3.5-36-2.1-71.9,4.1-107.5c4.4-25.5,16.1-47.1,40.4-59.1
	c22.4-11,45.7-11.2,68.7-2.2c17.1,6.7,27.6,20.2,34.3,37c0.6,1.5,0.8,2.9,0.2,4.4c-0.3,0-0.5,0-0.8,0
	c-15.4-14.4-34.5-21.1-54.6-24.9c-14.4-2.7-28.5,0.2-42.3,4.8c-11.5,3.8-22.4,8.6-31,17.5c-2.6,2.7-4.4,5.8-5.7,9.3
	c-0.8,2.2-1.5,4.6,0.6,6.5c2,1.9,4.3,1.2,6.6,0.4c3-1.1,5.7-2.6,8.6-4.1c11.3-5.7,22.7-11,35.1-14.2c20.9-5.4,40.2-1.5,58.8,8.6
	c5.4,2.9,10.6,6.4,16.3,8.7c3.3,1.3,6.8,2.2,9.5-1.4C278.1,179.4,278.6,178,280.2,178.3z"/>
<path class="st2" d="M307,303.7c2,12.6,5.1,24,9.3,35.7c-10.6-1.6-20.2-4.6-29.8-7.6c-0.6-0.2-1.2-0.6-1.6-1.1
	c-0.6-0.9,2.5-11.1,3.6-11.4C296.9,317.5,302.5,311.8,307,303.7z"/>
<path class="st4" d="M274.4,339c-1.9,0.5-2.8,2.3-4,3.5c-4.1,4.1-8.9,6.3-14.8,5.7c-2.1-0.2-3.6-1-3.6-3.3c0-2.2,1.3-3.3,3.6-3.2
	c8.1,0.4,12.1-4.8,14.6-11.3c2.5-6.5,3.2-13-3.1-18.2c-1.7-1.4-2-3.1-0.6-4.8c1.5-1.7,3.2-1.4,4.9-0.2c4.8,3.5,6.6,8.5,7.1,14.2
	c0.1,1.5-1.1,3.3,0.9,4.5C277.7,330.4,276,334.7,274.4,339z"/>
<path class="st5" d="M288.7,312c1.3-12.6,2.5-24.8,3.8-37c7,2.8,11,8.5,10.8,15.1C303,300.6,297.3,309.2,288.7,312z"/>
<path class="st5" d="M120.3,272.4c0.6,13.4,1.8,25.9,3.4,39.3c-9.4-7.3-14.5-15.6-14.5-26.7C109.2,278,115.2,276.1,120.3,272.4z"/>
<path class="st6" d="M128.9,332.7c2.6,6.3,4.9,12.3,8.1,18c-3.4,2.1-7.2,2.5-10.9,3.4c-2.1,0.5-3,0.1-2.3-2.5
	C125.6,345.5,127.1,339.2,128.9,332.7z"/>
<path class="st7" d="M282.4,354.7c-5.3-0.6-7.2-2.4-4.1-7c1.1-1.6,1.6-3.5,2.8-6.2C281.6,346.6,282,350.5,282.4,354.7z"/>
<path class="st8" d="M280.2,178.3c-0.6,0.7-1.1,1.3-1.7,2c-2-2-1.6-4.2-0.8-6.5c0.3-0.6,0.8-0.8,1.4-0.5
	C279.5,174.9,279.8,176.6,280.2,178.3z"/>
<path class="st9" d="M279.1,173.2c-0.2,0-0.5,0-0.7-0.1c-2.8-0.3-3-1.9-2.1-4.1c0,0-0.1,0-0.1,0C279,169.2,278.3,171.7,279.1,173.2z
	"/>
<path d="M224.9,343.4c-0.9,4.1-1.6,7.9-2.6,11.6c-1,3.6-2.9,6.7-5.8,9.1c-5.6,4.7-11.9,3-14-4c-1.3-4.1-2.1-8.4-3.2-12.5
	c-0.5-1.9-1.2-2.5-3.5-1.6c-6.8,2.6-12.3,0.3-14.8-6.4c-1-2.8-2.1-3-4.6-2.3c-3.3,1-6.6,2.2-10.2,2.1c-6.1-0.1-10.9-3.5-12.5-8.8
	c-1.6-5.3,0.6-10.8,5.8-14.1c6.4-4,13.7-6.1,20.9-7.8c8.6-2,17.2-3.6,25.9-5.3c17.2-3.4,33.4,1.5,49.3,6.9c8,2.8,10.8,10.3,8,17.8
	c-3.1,8.3-10.6,12.3-18.5,9.7c-1.9-0.6-2.5-0.3-3.5,1.2C236.7,345.7,233,346.6,224.9,343.4z"/>
<path d="M282.2,225.9c-0.5,5.6-0.6,12-3.4,18.1c-7,15.1-20.7,22.6-37.4,20.2c-17.8-2.5-30.5-14.3-33.2-30.4
	c-1.1-6.8-0.4-13.2,1.3-19.7c4.2-16.1,23.3-26.8,39.9-24.6c2,0.3,4,0.5,5.9,1C274.1,195.3,281.4,203.5,282.2,225.9z"/>
<path d="M276.3,169.1c0.5,1.5,0.5,3.2,2.1,4.1c0,2.4,0,4.7,0.1,7.1c-1.7,5.1-5.6,4.7-9.4,3.2c-4.3-1.7-8.6-3.7-12.5-6.2
	c-29.4-18.8-59.3-17.4-89.5-2.1c-5.9,3-11.9,6-17.9,8.8c-2.6,1.2-5.5,2.2-8,0c-2.7-2.4-2-5.4-1.1-8.4c2-6.5,6.1-11.7,11.7-15.1
	c26.8-16.7,55.1-24.5,86.2-13.2c7,2.5,13.8,5.6,20.7,8.4C265.9,158.6,271.7,163,276.3,169.1z"/>
<path d="M192.4,258.7c-1.6-0.1-2.8,0.8-4,1.5c-16.3,9.2-40.2,3.5-50.7-12c-9.5-14.1-8.5-35.9,3.6-47.6c11.6-11.2,25.9-13.9,41.5-9.1
	c16.5,5.1,22,14.3,23,31.4c0.8,13.3-2.6,25-12.9,34.1c-0.4,0.4-0.4,1.2-0.6,1.8L192.4,258.7z"/>
<path class="st10" d="M192.4,258.7c0,0-0.1,0.1-0.1,0.1c4.9-1.7,5.9-1.1,6,3.9c0.2,7.2,1,14.2,3.1,21.1c0.8,2.6,1.8,5,3.4,7.2
	c2.5,3.2,3.9,3.1,5.5-0.7c2.9-6.9,3.2-14.2,3.5-21.5c0.1-2.5,0-5,0-7.5c0-2.1,0.8-3.6,3.2-3.5c2,0.1,3.2,1.2,3.2,3.1
	c0.3,11.2,0.3,22.4-4.3,32.8c-3.4,7.8-10.1,8.6-15.7,2.1c-1.2-1.4-2.2-2.9-2.9-4.6C192.9,280.8,191.3,270,192.4,258.7z"/>
<path class="st11" d="M250,277.7c-6.9-0.1-13.6-1.2-19.7-4.6c-2.1-1.2-4.3-2.7-2.8-5.5c1.5-2.8,3.8-1.5,6-0.4
	c12.2,5.8,24.1,6.1,35.3-2.4c1.9-1.4,3.6-2.8,5.6-0.6c2.2,2.5,0.3,4.3-1.6,5.8C266.1,275.5,258.5,277.8,250,277.7z"/>
<path class="st11" d="M164.7,279c-5.7-0.4-11.8-0.7-17.7-2.8c-2.7-1-5.2-2.2-7.4-4c-1.9-1.6-3.6-3.6-1.7-6c1.9-2.5,3.7-0.7,5.9,0.7
	c10.5,6.8,21.9,6.7,33.5,3.5c2.4-0.7,4.6-2,5.9,1c1.2,2.9-1,4.2-3.3,5.1C175.2,278.5,170.2,278.9,164.7,279z"/>
<path class="st11" d="M138.2,329.5c-0.3-4.4,0.7-8.7,3.5-12.5c1.4-1.8,3-3.5,5.4-1.8c2.3,1.6,1.4,3.6,0.1,5.6
	c-4.3,6.7-2.8,15.7,3.1,20.1c2.4,1.8,5.1,2.5,8,2c2.6-0.4,4.6,0.4,4.6,3.1c0,2.7-2.3,3.1-4.6,3.4C148.2,350.8,137.7,341,138.2,329.5
	z"/>
<path class="st12" d="M238.2,372.3c-5.2-0.1-9.2-3.8-9.2-8.5c0-5.6,4.3-10.6,9.1-10.7c5.2-0.1,9.5,4.3,9.4,9.6
	C247.4,368.2,243.4,372.4,238.2,372.3z"/>
<path class="st13" d="M211.8,329.9c7.9,0.5,14.5,1.2,21,2.9c1.5,0.4,3.6,0.3,4,2.1c0.3,1.2-0.9,2.4-2,3.3c-1.6,1.3-3.4,1.4-5.1,0.6
	c-0.6-0.2-0.9-0.9-1.5-1.3c-4.2-3-7.6-1.8-8.8,3.3c-0.8,3.2-1.2,6.5-1.8,9.8c-0.3,1.3-0.6,2.6-1.1,3.8c-1.2,2.8-2.8,6.2-5.9,6.1
	c-3.3,0-2.6-4-3.3-6.4c-1-3.3-1.6-6.8-2.8-10.1c-1.8-4.9-5.1-6.2-9.9-4c-2.1,1-4,1.5-6,0c-1.4-1.1-2.3-2.6-2.2-4.3
	c0-2.2,2.1-1.7,3.4-2C197.2,332,204.9,330.1,211.8,329.9z"/>
<path class="st14" d="M249.4,332.3c-0.8-0.3-1.6-0.4-2.3-0.8c-19.3-9.6-39.3-9.5-59.6-3.9c-6.1,1.7-12.2,3.2-18.3,4.8
	c-4.6,1.2-8.3-0.6-9.2-4.2c-0.7-2.8,2.5-6.6,6.3-8c1.9-0.7,2.3,0.4,3.1,1.4c5.7,7.3,9,7.7,15.6,1.7c0.9-0.8,1.5-1.2,2.6-0.6
	c0.4,0.2,0.9,0.4,1.4,0.6c5.4,2.3,8.6-1.5,12-4.5c3.8,4.1,7.9,4.8,12.1,0.8c1.3-1.2,2-1.3,3.2-0.2c4,3.4,8.1,3.4,12.2,0.1
	c0.9-0.8,1.5-0.8,2.4,0.2c4.9,5.4,10.4,3.7,14.2-1.8c3-4.4,6-3.2,9.1-1.2c3.4,2.1,5.3,5.2,3.2,9.3
	C255.6,329.1,253.4,331.9,249.4,332.3z"/>
<path class="st15" d="M220.6,308.4c1.8,1.6,5.5-1.1,5.9,2.4c0.2,2.3-1.1,5-4.2,5.3c-1.7,0.2-5.2-4.5-4.9-6.3
	C217.7,307.7,219.5,309.1,220.6,308.4z"/>
<path class="st16" d="M181.8,314.5c-0.9,3.7-0.6,6.7-3.8,7.1c-2,0.2-4.1-1.8-3.6-3.3C175.1,315.3,178.7,316.5,181.8,314.5z"/>
<path class="st17" d="M203,310c2.8,1.2,5.5-2.8,7.1,0.9c0.7,1.6-0.3,4.7-2.2,5C204.5,316.5,204.5,312.9,203,310z"/>
<path class="st18" d="M196.5,311.7c-1.2,3.4-1.3,6.7-5.2,6.3c-1.8-0.2-3.2-2.7-2.7-3.6C190.2,311.8,193.4,312.8,196.5,311.7z"/>
<path class="st15" d="M237.4,317.1c-2.5-0.5-2.9-2.4-3.3-4.4c-0.3-1.3,0.2-2,1.5-1.6c1.9,0.6,4.8,0,5.3,2.2
	C241.2,314.8,239.1,316.3,237.4,317.1z"/>
<path class="st3" d="M265.3,220.1c-14.4-1.2-29-1.5-42.5-7.5c-5.1-2.3-5.4-3.1-1.1-7.1c10.5-9.5,22.5-11.9,36.1-7.5
	c8.8,2.9,14.6,8,16.8,17.2c0.8,3.4,0.5,5.1-3.4,4.8C269.3,220,267.3,220.1,265.3,220.1z"/>
<path class="st3" d="M216.7,240.1c17.4,0.4,33.8,0.3,50,3.9c4.2,0.9,3.5,2.1,1.5,4.6c-5.8,6.8-13.1,10.1-22,9.5
	C233.8,257.3,223.6,252.4,216.7,240.1z"/>
<path class="st19" d="M245.2,234.3c-9.1-0.2-18.2-0.4-27.3-0.6c-0.9,0-2.1-0.1-2.8-0.7c-1.5-1.3-1-14.2,0.6-15.5
	c1-0.8,1.8-0.1,2.6,0.3c7.4,3.6,15.2,5.5,23.3,6.6c3.2,0.4,5.5,2,5.7,5.6c0.1,1.4,1,2.4,2,3.3C248.6,235.8,246.7,234.4,245.2,234.3z
	"/>
<path class="st20" d="M252.3,234c3-3.3,7.9-3.3,11.3-6.8c1.9-2,7.2-0.8,11-0.9c1,0,1,1.1,0.9,2c-0.1,1.2-0.1,2.3-0.2,3.5
	c-0.6,7.3-0.6,7.2-7.7,5.8c-5-1-10.1-1.7-15.2-2.5c-0.4-0.2-0.5-0.4-0.4-0.6C252.1,234.2,252.2,234,252.3,234z"/>
<path class="st21" d="M252.3,234c0.1,0.3,0.1,0.6,0.1,1c-2.4,0.1-4.9,0.4-7.2-0.7c1.3-0.8,3.1,0.5,4.1-1.1
	C250.3,233.5,251.3,233.8,252.3,234z"/>
<path class="st2" d="M271.9,177.5c-19.8-10.3-39-21.7-62.6-20.6c-22.9,1-42.5,11-63,21.6c2.2-6.6,6-10.5,10.7-13.6
	c12.9-8.7,27.5-13.2,42.7-15.6c23.5-3.7,43.6,5.9,63.4,16.3C267.5,167.8,271,171.6,271.9,177.5z"/>
<path class="st0" d="M185.2,209.6c1.8,0,2.3,0,2.8,0c9.5,0.4,10.8,1.6,11.3,11.1c0.3,6.8,0.4,13.6-2.6,20.1
	c-5.8,12.6-17.2,19.2-30.1,17.1c-15.8-2.5-26.4-12.3-28.2-26c-1.4-10.7-1.3-11.1,8.9-14.1C160.1,213.9,172.6,208.5,185.2,209.6z"/>
<path class="st5" d="M141,212.7c8.6-17.6,32.9-22,50.6-9.1C173.4,201.1,157.8,207.9,141,212.7z"/>
<path class="st22" d="M238.6,366.5c-1.9-0.1-3.8-0.8-3.7-2.7c0.1-2.1,0.7-4.5,3.5-4.7c1.9-0.1,3.1,1.2,3.2,3.1
	C241.7,364.4,240.9,366.1,238.6,366.5z"/>
<path class="st23" d="M161.7,234.1c-2.8-2-4.2,3.5-7.4,1.2c-2.7-1.9,0.8-5.8-2.9-7.2c-1.3-0.5-1.3-2.3-0.8-3.6
	c0.6-1.6,2.1-2.3,3.7-1.8c1.8,0.5,3-0.1,4.5-1.1c1.9-1.2,4.3-1.4,6.2,0c2,1.4,1.7,3.5,0.2,5.2c-0.8,0.9,0.2,1.4,0.4,2.1
	C166.6,233,165.5,234.4,161.7,234.1z"/>
</svg>
